<?xml version="1.0" encoding="utf-8"?>
<!-- Generator: Adobe Illustrator 28.0.0, SVG Export Plug-In . SVG Version: 6.00 Build 0)  -->
<svg version="1.1" id="Layer_1" xmlns="http://www.w3.org/2000/svg" xmlns:xlink="http://www.w3.org/1999/xlink" x="0px" y="0px"
	 viewBox="0 0 288 288" style="enable-background:new 0 0 288 288;" xml:space="preserve">
<style type="text/css">
	.st0{clip-path:url(#SVGID_00000097459631577367917140000017379012895540798635_);}
</style>
<g>
	<g>
		<defs>
			<rect id="SVGID_1_" x="0" width="288" height="288"/>
		</defs>
		<use xlink:href="#SVGID_1_"  style="overflow:visible;fill-rule:evenodd;clip-rule:evenodd;fill:#FFFFFF;"/>
		<clipPath id="SVGID_00000145773043984489951840000005602149838616346502_">
			<use xlink:href="#SVGID_1_"  style="overflow:visible;"/>
		</clipPath>
		<g style="clip-path:url(#SVGID_00000145773043984489951840000005602149838616346502_);">
			<path d="M-10-13.1c0.7,0,1.3-0.6,1.3-1.3c0-0.7-0.6-1.3-1.3-1.3c-0.7,0-1.3,0.6-1.3,1.3C-11.3-13.7-10.7-13.1-10-13.1z"/>
			<path d="M4.4-13.1c0.7,0,1.3-0.6,1.3-1.3c0-0.7-0.6-1.3-1.3-1.3c-0.7,0-1.3,0.6-1.3,1.3C3.1-13.7,3.7-13.1,4.4-13.1z"/>
			<path d="M18.8-13.1c0.7,0,1.3-0.6,1.3-1.3c0-0.7-0.6-1.3-1.3-1.3c-0.7,0-1.3,0.6-1.3,1.3C17.5-13.7,18.1-13.1,18.8-13.1z"/>
			<circle cx="33.2" cy="-14.4" r="1.3"/>
			<path d="M47.6-13.1c0.7,0,1.3-0.6,1.3-1.3c0-0.7-0.6-1.3-1.3-1.3c-0.7,0-1.3,0.6-1.3,1.3C46.3-13.7,46.9-13.1,47.6-13.1z"/>
			<path d="M62-13.1c0.7,0,1.3-0.6,1.3-1.3c0-0.7-0.6-1.3-1.3-1.3c-0.7,0-1.3,0.6-1.3,1.3C60.7-13.7,61.3-13.1,62-13.1z"/>
			<path d="M76.4-13.1c0.7,0,1.3-0.6,1.3-1.3c0-0.7-0.6-1.3-1.3-1.3c-0.7,0-1.3,0.6-1.3,1.3C75.1-13.7,75.7-13.1,76.4-13.1z"/>
			<path d="M90.8-13.1c0.7,0,1.3-0.6,1.3-1.3c0-0.7-0.6-1.3-1.3-1.3c-0.7,0-1.3,0.6-1.3,1.3C89.5-13.7,90.1-13.1,90.8-13.1z"/>
			<circle cx="105.2" cy="-14.4" r="1.3"/>
			<path d="M119.6-13.1c0.7,0,1.3-0.6,1.3-1.3c0-0.7-0.6-1.3-1.3-1.3c-0.7,0-1.3,0.6-1.3,1.3C118.3-13.7,118.9-13.1,119.6-13.1z"/>
			<path d="M134-13.1c0.7,0,1.3-0.6,1.3-1.3c0-0.7-0.6-1.3-1.3-1.3c-0.7,0-1.3,0.6-1.3,1.3C132.7-13.7,133.3-13.1,134-13.1z"/>
			<path d="M148.4-13.1c0.7,0,1.3-0.6,1.3-1.3c0-0.7-0.6-1.3-1.3-1.3c-0.7,0-1.3,0.6-1.3,1.3C147.1-13.7,147.7-13.1,148.4-13.1z"/>
			<path d="M162.8-13.1c0.7,0,1.3-0.6,1.3-1.3c0-0.7-0.6-1.3-1.3-1.3c-0.7,0-1.3,0.6-1.3,1.3C161.5-13.7,162.1-13.1,162.8-13.1z"/>
			<circle cx="177.2" cy="-14.4" r="1.3"/>
			<path d="M191.6-13.1c0.7,0,1.3-0.6,1.3-1.3c0-0.7-0.6-1.3-1.3-1.3c-0.7,0-1.3,0.6-1.3,1.3C190.3-13.7,190.9-13.1,191.6-13.1z"/>
			<path d="M206-13.1c0.7,0,1.3-0.6,1.3-1.3c0-0.7-0.6-1.3-1.3-1.3c-0.7,0-1.3,0.6-1.3,1.3C204.7-13.7,205.3-13.1,206-13.1z"/>
			<path d="M220.4-13.1c0.7,0,1.3-0.6,1.3-1.3c0-0.7-0.6-1.3-1.3-1.3c-0.7,0-1.3,0.6-1.3,1.3C219.1-13.7,219.7-13.1,220.4-13.1z"/>
			<path d="M234.8-13.1c0.7,0,1.3-0.6,1.3-1.3c0-0.7-0.6-1.3-1.3-1.3c-0.7,0-1.3,0.6-1.3,1.3C233.5-13.7,234.1-13.1,234.8-13.1z"/>
			<circle cx="249.2" cy="-14.4" r="1.3"/>
			<path d="M263.6-13.1c0.7,0,1.3-0.6,1.3-1.3c0-0.7-0.6-1.3-1.3-1.3c-0.7,0-1.3,0.6-1.3,1.3C262.3-13.7,262.9-13.1,263.6-13.1z"/>
			<path d="M278-13.1c0.7,0,1.3-0.6,1.3-1.3c0-0.7-0.6-1.3-1.3-1.3c-0.7,0-1.3,0.6-1.3,1.3C276.7-13.7,277.3-13.1,278-13.1z"/>
			<path d="M292.4-13.1c0.7,0,1.3-0.6,1.3-1.3c0-0.7-0.6-1.3-1.3-1.3c-0.7,0-1.3,0.6-1.3,1.3C291.1-13.7,291.7-13.1,292.4-13.1z"/>
			<path d="M-17.2,1.3c0.7,0,1.3-0.6,1.3-1.3s-0.6-1.3-1.3-1.3c-0.7,0-1.3,0.6-1.3,1.3S-17.9,1.3-17.2,1.3z"/>
			<circle cx="-2.8" cy="0" r="1.3"/>
			<path d="M11.6,1.3c0.7,0,1.3-0.6,1.3-1.3s-0.6-1.3-1.3-1.3c-0.7,0-1.3,0.6-1.3,1.3S10.9,1.3,11.6,1.3z"/>
			<path d="M26,1.3c0.7,0,1.3-0.6,1.3-1.3S26.7-1.3,26-1.3c-0.7,0-1.3,0.6-1.3,1.3S25.3,1.3,26,1.3z"/>
			<path d="M40.4,1.3c0.7,0,1.3-0.6,1.3-1.3s-0.6-1.3-1.3-1.3c-0.7,0-1.3,0.6-1.3,1.3S39.7,1.3,40.4,1.3z"/>
			<path d="M54.8,1.3c0.7,0,1.3-0.6,1.3-1.3s-0.6-1.3-1.3-1.3c-0.7,0-1.3,0.6-1.3,1.3S54.1,1.3,54.8,1.3z"/>
			<circle cx="69.2" cy="0" r="1.3"/>
			<path d="M83.6,1.3c0.7,0,1.3-0.6,1.3-1.3s-0.6-1.3-1.3-1.3c-0.7,0-1.3,0.6-1.3,1.3S82.9,1.3,83.6,1.3z"/>
			<path d="M98,1.3c0.7,0,1.3-0.6,1.3-1.3S98.7-1.3,98-1.3c-0.7,0-1.3,0.6-1.3,1.3S97.3,1.3,98,1.3z"/>
			<path d="M112.4,1.3c0.7,0,1.3-0.6,1.3-1.3s-0.6-1.3-1.3-1.3c-0.7,0-1.3,0.6-1.3,1.3S111.7,1.3,112.4,1.3z"/>
			<path d="M126.8,1.3c0.7,0,1.3-0.6,1.3-1.3s-0.6-1.3-1.3-1.3c-0.7,0-1.3,0.6-1.3,1.3S126.1,1.3,126.8,1.3z"/>
			<circle cx="141.2" cy="0" r="1.3"/>
			<path d="M155.6,1.3c0.7,0,1.3-0.6,1.3-1.3s-0.6-1.3-1.3-1.3c-0.7,0-1.3,0.6-1.3,1.3S154.9,1.3,155.6,1.3z"/>
			<path d="M170,1.3c0.7,0,1.3-0.6,1.3-1.3s-0.6-1.3-1.3-1.3c-0.7,0-1.3,0.6-1.3,1.3S169.3,1.3,170,1.3z"/>
			<path d="M184.4,1.3c0.7,0,1.3-0.6,1.3-1.3s-0.6-1.3-1.3-1.3c-0.7,0-1.3,0.6-1.3,1.3S183.7,1.3,184.4,1.3z"/>
			<path d="M198.8,1.3c0.7,0,1.3-0.6,1.3-1.3s-0.6-1.3-1.3-1.3c-0.7,0-1.3,0.6-1.3,1.3S198.1,1.3,198.8,1.3z"/>
			<circle cx="213.2" cy="0" r="1.3"/>
			<path d="M227.6,1.3c0.7,0,1.3-0.6,1.3-1.3s-0.6-1.3-1.3-1.3c-0.7,0-1.3,0.6-1.3,1.3S226.9,1.3,227.6,1.3z"/>
			<path d="M242,1.3c0.7,0,1.3-0.6,1.3-1.3s-0.6-1.3-1.3-1.3c-0.7,0-1.3,0.6-1.3,1.3S241.3,1.3,242,1.3z"/>
			<path d="M256.4,1.3c0.7,0,1.3-0.6,1.3-1.3s-0.6-1.3-1.3-1.3c-0.7,0-1.3,0.6-1.3,1.3S255.7,1.3,256.4,1.3z"/>
			<path d="M270.8,1.3c0.7,0,1.3-0.6,1.3-1.3s-0.6-1.3-1.3-1.3c-0.7,0-1.3,0.6-1.3,1.3S270.1,1.3,270.8,1.3z"/>
			<circle cx="285.2" cy="0" r="1.3"/>
			<path d="M-10,15.7c0.7,0,1.3-0.6,1.3-1.3c0-0.7-0.6-1.3-1.3-1.3c-0.7,0-1.3,0.6-1.3,1.3C-11.3,15.1-10.7,15.7-10,15.7z"/>
			<path d="M4.4,15.7c0.7,0,1.3-0.6,1.3-1.3c0-0.7-0.6-1.3-1.3-1.3c-0.7,0-1.3,0.6-1.3,1.3C3.1,15.1,3.7,15.7,4.4,15.7z"/>
			<path d="M18.8,15.7c0.7,0,1.3-0.6,1.3-1.3c0-0.7-0.6-1.3-1.3-1.3c-0.7,0-1.3,0.6-1.3,1.3C17.5,15.1,18.1,15.7,18.8,15.7z"/>
			<path d="M33.2,15.7c0.7,0,1.3-0.6,1.3-1.3c0-0.7-0.6-1.3-1.3-1.3s-1.3,0.6-1.3,1.3C31.9,15.1,32.5,15.7,33.2,15.7z"/>
			<path d="M47.6,15.7c0.7,0,1.3-0.6,1.3-1.3c0-0.7-0.6-1.3-1.3-1.3c-0.7,0-1.3,0.6-1.3,1.3C46.3,15.1,46.9,15.7,47.6,15.7z"/>
			<path d="M62,15.7c0.7,0,1.3-0.6,1.3-1.3c0-0.7-0.6-1.3-1.3-1.3c-0.7,0-1.3,0.6-1.3,1.3C60.7,15.1,61.3,15.7,62,15.7z"/>
			<path d="M76.4,15.7c0.7,0,1.3-0.6,1.3-1.3c0-0.7-0.6-1.3-1.3-1.3c-0.7,0-1.3,0.6-1.3,1.3C75.1,15.1,75.7,15.7,76.4,15.7z"/>
			<path d="M90.8,15.7c0.7,0,1.3-0.6,1.3-1.3c0-0.7-0.6-1.3-1.3-1.3c-0.7,0-1.3,0.6-1.3,1.3C89.5,15.1,90.1,15.7,90.8,15.7z"/>
			<path d="M105.2,15.7c0.7,0,1.3-0.6,1.3-1.3c0-0.7-0.6-1.3-1.3-1.3s-1.3,0.6-1.3,1.3C103.9,15.1,104.5,15.7,105.2,15.7z"/>
			<path d="M119.6,15.7c0.7,0,1.3-0.6,1.3-1.3c0-0.7-0.6-1.3-1.3-1.3c-0.7,0-1.3,0.6-1.3,1.3C118.3,15.1,118.9,15.7,119.6,15.7z"/>
			<path d="M134,15.7c0.7,0,1.3-0.6,1.3-1.3c0-0.7-0.6-1.3-1.3-1.3c-0.7,0-1.3,0.6-1.3,1.3C132.7,15.1,133.3,15.7,134,15.7z"/>
			<path d="M148.4,15.7c0.7,0,1.3-0.6,1.3-1.3c0-0.7-0.6-1.3-1.3-1.3c-0.7,0-1.3,0.6-1.3,1.3C147.1,15.1,147.7,15.7,148.4,15.7z"/>
			<path d="M162.8,15.7c0.7,0,1.3-0.6,1.3-1.3c0-0.7-0.6-1.3-1.3-1.3c-0.7,0-1.3,0.6-1.3,1.3C161.5,15.1,162.1,15.7,162.8,15.7z"/>
			<path d="M177.2,15.7c0.7,0,1.3-0.6,1.3-1.3c0-0.7-0.6-1.3-1.3-1.3s-1.3,0.6-1.3,1.3C175.9,15.1,176.5,15.7,177.2,15.7z"/>
			<path d="M191.6,15.7c0.7,0,1.3-0.6,1.3-1.3c0-0.7-0.6-1.3-1.3-1.3c-0.7,0-1.3,0.6-1.3,1.3C190.3,15.1,190.9,15.7,191.6,15.7z"/>
			<path d="M206,15.7c0.7,0,1.3-0.6,1.3-1.3c0-0.7-0.6-1.3-1.3-1.3c-0.7,0-1.3,0.6-1.3,1.3C204.7,15.1,205.3,15.7,206,15.7z"/>
			<path d="M220.4,15.7c0.7,0,1.3-0.6,1.3-1.3c0-0.7-0.6-1.3-1.3-1.3c-0.7,0-1.3,0.6-1.3,1.3C219.1,15.1,219.7,15.7,220.4,15.7z"/>
			<path d="M234.8,15.7c0.7,0,1.3-0.6,1.3-1.3c0-0.7-0.6-1.3-1.3-1.3c-0.7,0-1.3,0.6-1.3,1.3C233.5,15.1,234.1,15.7,234.8,15.7z"/>
			<path d="M249.2,15.7c0.7,0,1.3-0.6,1.3-1.3c0-0.7-0.6-1.3-1.3-1.3s-1.3,0.6-1.3,1.3C247.9,15.1,248.5,15.7,249.2,15.7z"/>
			<path d="M263.6,15.7c0.7,0,1.3-0.6,1.3-1.3c0-0.7-0.6-1.3-1.3-1.3c-0.7,0-1.3,0.6-1.3,1.3C262.3,15.1,262.9,15.7,263.6,15.7z"/>
			<path d="M278,15.7c0.7,0,1.3-0.6,1.3-1.3c0-0.7-0.6-1.3-1.3-1.3c-0.7,0-1.3,0.6-1.3,1.3C276.7,15.1,277.3,15.7,278,15.7z"/>
			<path d="M292.4,15.7c0.7,0,1.3-0.6,1.3-1.3c0-0.7-0.6-1.3-1.3-1.3c-0.7,0-1.3,0.6-1.3,1.3C291.1,15.1,291.7,15.7,292.4,15.7z"/>
			<path d="M-17.2,30.1c0.7,0,1.3-0.6,1.3-1.3c0-0.7-0.6-1.3-1.3-1.3c-0.7,0-1.3,0.6-1.3,1.3C-18.5,29.5-17.9,30.1-17.2,30.1z"/>
			<path d="M-2.8,30.1c0.7,0,1.3-0.6,1.3-1.3c0-0.7-0.6-1.3-1.3-1.3s-1.3,0.6-1.3,1.3C-4.1,29.5-3.5,30.1-2.8,30.1z"/>
			<path d="M11.6,30.1c0.7,0,1.3-0.6,1.3-1.3c0-0.7-0.6-1.3-1.3-1.3c-0.7,0-1.3,0.6-1.3,1.3C10.3,29.5,10.9,30.1,11.6,30.1z"/>
			<path d="M26,30.1c0.7,0,1.3-0.6,1.3-1.3c0-0.7-0.6-1.3-1.3-1.3c-0.7,0-1.3,0.6-1.3,1.3C24.7,29.5,25.3,30.1,26,30.1z"/>
			<path d="M40.4,30.1c0.7,0,1.3-0.6,1.3-1.3c0-0.7-0.6-1.3-1.3-1.3c-0.7,0-1.3,0.6-1.3,1.3C39.1,29.5,39.7,30.1,40.4,30.1z"/>
			<path d="M54.8,30.1c0.7,0,1.3-0.6,1.3-1.3c0-0.7-0.6-1.3-1.3-1.3c-0.7,0-1.3,0.6-1.3,1.3C53.5,29.5,54.1,30.1,54.8,30.1z"/>
			<path d="M69.2,30.1c0.7,0,1.3-0.6,1.3-1.3c0-0.7-0.6-1.3-1.3-1.3s-1.3,0.6-1.3,1.3C67.9,29.5,68.5,30.1,69.2,30.1z"/>
			<path d="M83.6,30.1c0.7,0,1.3-0.6,1.3-1.3c0-0.7-0.6-1.3-1.3-1.3c-0.7,0-1.3,0.6-1.3,1.3C82.3,29.5,82.9,30.1,83.6,30.1z"/>
			<path d="M98,30.1c0.7,0,1.3-0.6,1.3-1.3c0-0.7-0.6-1.3-1.3-1.3c-0.7,0-1.3,0.6-1.3,1.3C96.7,29.5,97.3,30.1,98,30.1z"/>
			<path d="M112.4,30.1c0.7,0,1.3-0.6,1.3-1.3c0-0.7-0.6-1.3-1.3-1.3c-0.7,0-1.3,0.6-1.3,1.3C111.1,29.5,111.7,30.1,112.4,30.1z"/>
			<path d="M126.8,30.1c0.7,0,1.3-0.6,1.3-1.3c0-0.7-0.6-1.3-1.3-1.3c-0.7,0-1.3,0.6-1.3,1.3C125.5,29.5,126.1,30.1,126.8,30.1z"/>
			<path d="M141.2,30.1c0.7,0,1.3-0.6,1.3-1.3c0-0.7-0.6-1.3-1.3-1.3s-1.3,0.6-1.3,1.3C139.9,29.5,140.5,30.1,141.2,30.1z"/>
			<path d="M155.6,30.1c0.7,0,1.3-0.6,1.3-1.3c0-0.7-0.6-1.3-1.3-1.3c-0.7,0-1.3,0.6-1.3,1.3C154.3,29.5,154.9,30.1,155.6,30.1z"/>
			<path d="M170,30.1c0.7,0,1.3-0.6,1.3-1.3c0-0.7-0.6-1.3-1.3-1.3c-0.7,0-1.3,0.6-1.3,1.3C168.7,29.5,169.3,30.1,170,30.1z"/>
			<path d="M184.4,30.1c0.7,0,1.3-0.6,1.3-1.3c0-0.7-0.6-1.3-1.3-1.3c-0.7,0-1.3,0.6-1.3,1.3C183.1,29.5,183.7,30.1,184.4,30.1z"/>
			<path d="M198.8,30.1c0.7,0,1.3-0.6,1.3-1.3c0-0.7-0.6-1.3-1.3-1.3c-0.7,0-1.3,0.6-1.3,1.3C197.5,29.5,198.1,30.1,198.8,30.1z"/>
			<path d="M213.2,30.1c0.7,0,1.3-0.6,1.3-1.3c0-0.7-0.6-1.3-1.3-1.3s-1.3,0.6-1.3,1.3C211.9,29.5,212.5,30.1,213.2,30.1z"/>
			<path d="M227.6,30.1c0.7,0,1.3-0.6,1.3-1.3c0-0.7-0.6-1.3-1.3-1.3c-0.7,0-1.3,0.6-1.3,1.3C226.3,29.5,226.9,30.1,227.6,30.1z"/>
			<path d="M242,30.1c0.7,0,1.3-0.6,1.3-1.3c0-0.7-0.6-1.3-1.3-1.3c-0.7,0-1.3,0.6-1.3,1.3C240.7,29.5,241.3,30.1,242,30.1z"/>
			<path d="M256.4,30.1c0.7,0,1.3-0.6,1.3-1.3c0-0.7-0.6-1.3-1.3-1.3c-0.7,0-1.3,0.6-1.3,1.3C255.1,29.5,255.7,30.1,256.4,30.1z"/>
			<path d="M270.8,30.1c0.7,0,1.3-0.6,1.3-1.3c0-0.7-0.6-1.3-1.3-1.3c-0.7,0-1.3,0.6-1.3,1.3C269.5,29.5,270.1,30.1,270.8,30.1z"/>
			<path d="M285.2,30.1c0.7,0,1.3-0.6,1.3-1.3c0-0.7-0.6-1.3-1.3-1.3c-0.7,0-1.3,0.6-1.3,1.3C283.9,29.5,284.5,30.1,285.2,30.1z"/>
			<path d="M-10,44.5c0.7,0,1.3-0.6,1.3-1.3c0-0.7-0.6-1.3-1.3-1.3c-0.7,0-1.3,0.6-1.3,1.3C-11.3,43.9-10.7,44.5-10,44.5z"/>
			<path d="M4.4,44.5c0.7,0,1.3-0.6,1.3-1.3c0-0.7-0.6-1.3-1.3-1.3c-0.7,0-1.3,0.6-1.3,1.3C3.1,43.9,3.7,44.5,4.4,44.5z"/>
			<path d="M18.8,44.5c0.7,0,1.3-0.6,1.3-1.3c0-0.7-0.6-1.3-1.3-1.3c-0.7,0-1.3,0.6-1.3,1.3C17.5,43.9,18.1,44.5,18.8,44.5z"/>
			<path d="M33.2,44.5c0.7,0,1.3-0.6,1.3-1.3c0-0.7-0.6-1.3-1.3-1.3s-1.3,0.6-1.3,1.3C31.9,43.9,32.5,44.5,33.2,44.5z"/>
			<path d="M47.6,44.5c0.7,0,1.3-0.6,1.3-1.3c0-0.7-0.6-1.3-1.3-1.3c-0.7,0-1.3,0.6-1.3,1.3C46.3,43.9,46.9,44.5,47.6,44.5z"/>
			<path d="M62,44.5c0.7,0,1.3-0.6,1.3-1.3c0-0.7-0.6-1.3-1.3-1.3c-0.7,0-1.3,0.6-1.3,1.3C60.7,43.9,61.3,44.5,62,44.5z"/>
			<path d="M76.4,44.5c0.7,0,1.3-0.6,1.3-1.3c0-0.7-0.6-1.3-1.3-1.3c-0.7,0-1.3,0.6-1.3,1.3C75.1,43.9,75.7,44.5,76.4,44.5z"/>
			<path d="M90.8,44.5c0.7,0,1.3-0.6,1.3-1.3c0-0.7-0.6-1.3-1.3-1.3c-0.7,0-1.3,0.6-1.3,1.3C89.5,43.9,90.1,44.5,90.8,44.5z"/>
			<path d="M105.2,44.5c0.7,0,1.3-0.6,1.3-1.3c0-0.7-0.6-1.3-1.3-1.3s-1.3,0.6-1.3,1.3C103.9,43.9,104.5,44.5,105.2,44.5z"/>
			<path d="M119.6,44.5c0.7,0,1.3-0.6,1.3-1.3c0-0.7-0.6-1.3-1.3-1.3c-0.7,0-1.3,0.6-1.3,1.3C118.3,43.9,118.9,44.5,119.6,44.5z"/>
			<path d="M134,44.5c0.7,0,1.3-0.6,1.3-1.3c0-0.7-0.6-1.3-1.3-1.3c-0.7,0-1.3,0.6-1.3,1.3C132.7,43.9,133.3,44.5,134,44.5z"/>
			<path d="M148.4,44.5c0.7,0,1.3-0.6,1.3-1.3c0-0.7-0.6-1.3-1.3-1.3c-0.7,0-1.3,0.6-1.3,1.3C147.1,43.9,147.7,44.5,148.4,44.5z"/>
			<path d="M162.8,44.5c0.7,0,1.3-0.6,1.3-1.3c0-0.7-0.6-1.3-1.3-1.3c-0.7,0-1.3,0.6-1.3,1.3C161.5,43.9,162.1,44.5,162.8,44.5z"/>
			<path d="M177.2,44.5c0.7,0,1.3-0.6,1.3-1.3c0-0.7-0.6-1.3-1.3-1.3s-1.3,0.6-1.3,1.3C175.9,43.9,176.5,44.5,177.2,44.5z"/>
			<path d="M191.6,44.5c0.7,0,1.3-0.6,1.3-1.3c0-0.7-0.6-1.3-1.3-1.3c-0.7,0-1.3,0.6-1.3,1.3C190.3,43.9,190.9,44.5,191.6,44.5z"/>
			<path d="M206,44.5c0.7,0,1.3-0.6,1.3-1.3c0-0.7-0.6-1.3-1.3-1.3c-0.7,0-1.3,0.6-1.3,1.3C204.7,43.9,205.3,44.5,206,44.5z"/>
			<path d="M220.4,44.5c0.7,0,1.3-0.6,1.3-1.3c0-0.7-0.6-1.3-1.3-1.3c-0.7,0-1.3,0.6-1.3,1.3C219.1,43.9,219.7,44.5,220.4,44.5z"/>
			<path d="M234.8,44.5c0.7,0,1.3-0.6,1.3-1.3c0-0.7-0.6-1.3-1.3-1.3c-0.7,0-1.3,0.6-1.3,1.3C233.5,43.9,234.1,44.5,234.8,44.5z"/>
			<path d="M249.2,44.5c0.7,0,1.3-0.6,1.3-1.3c0-0.7-0.6-1.3-1.3-1.3s-1.3,0.6-1.3,1.3C247.9,43.9,248.5,44.5,249.2,44.5z"/>
			<path d="M263.6,44.5c0.7,0,1.3-0.6,1.3-1.3c0-0.7-0.6-1.3-1.3-1.3c-0.7,0-1.3,0.6-1.3,1.3C262.3,43.9,262.9,44.5,263.6,44.5z"/>
			<path d="M278,44.5c0.7,0,1.3-0.6,1.3-1.3c0-0.7-0.6-1.3-1.3-1.3c-0.7,0-1.3,0.6-1.3,1.3C276.7,43.9,277.3,44.5,278,44.5z"/>
			<path d="M292.4,44.5c0.7,0,1.3-0.6,1.3-1.3c0-0.7-0.6-1.3-1.3-1.3c-0.7,0-1.3,0.6-1.3,1.3C291.1,43.9,291.7,44.5,292.4,44.5z"/>
			<path d="M-17.2,58.9c0.7,0,1.3-0.6,1.3-1.3c0-0.7-0.6-1.3-1.3-1.3c-0.7,0-1.3,0.6-1.3,1.3C-18.5,58.3-17.9,58.9-17.2,58.9z"/>
			<circle cx="-2.8" cy="57.6" r="1.3"/>
			<path d="M11.6,58.9c0.7,0,1.3-0.6,1.3-1.3c0-0.7-0.6-1.3-1.3-1.3c-0.7,0-1.3,0.6-1.3,1.3C10.3,58.3,10.9,58.9,11.6,58.9z"/>
			<path d="M26,58.9c0.7,0,1.3-0.6,1.3-1.3c0-0.7-0.6-1.3-1.3-1.3c-0.7,0-1.3,0.6-1.3,1.3C24.7,58.3,25.3,58.9,26,58.9z"/>
			<path d="M40.4,58.9c0.7,0,1.3-0.6,1.3-1.3c0-0.7-0.6-1.3-1.3-1.3c-0.7,0-1.3,0.6-1.3,1.3C39.1,58.3,39.7,58.9,40.4,58.9z"/>
			<path d="M54.8,58.9c0.7,0,1.3-0.6,1.3-1.3c0-0.7-0.6-1.3-1.3-1.3c-0.7,0-1.3,0.6-1.3,1.3C53.5,58.3,54.1,58.9,54.8,58.9z"/>
			<circle cx="69.2" cy="57.6" r="1.3"/>
			<path d="M83.6,58.9c0.7,0,1.3-0.6,1.3-1.3c0-0.7-0.6-1.3-1.3-1.3c-0.7,0-1.3,0.6-1.3,1.3C82.3,58.3,82.9,58.9,83.6,58.9z"/>
			<path d="M98,58.9c0.7,0,1.3-0.6,1.3-1.3c0-0.7-0.6-1.3-1.3-1.3c-0.7,0-1.3,0.6-1.3,1.3C96.7,58.3,97.3,58.9,98,58.9z"/>
			<path d="M112.4,58.9c0.7,0,1.3-0.6,1.3-1.3c0-0.7-0.6-1.3-1.3-1.3c-0.7,0-1.3,0.6-1.3,1.3C111.1,58.3,111.7,58.9,112.4,58.9z"/>
			<path d="M126.8,58.9c0.7,0,1.3-0.6,1.3-1.3c0-0.7-0.6-1.3-1.3-1.3c-0.7,0-1.3,0.6-1.3,1.3C125.5,58.3,126.1,58.9,126.8,58.9z"/>
			<circle cx="141.2" cy="57.6" r="1.3"/>
			<path d="M155.6,58.9c0.7,0,1.3-0.6,1.3-1.3c0-0.7-0.6-1.3-1.3-1.3c-0.7,0-1.3,0.6-1.3,1.3C154.3,58.3,154.9,58.9,155.6,58.9z"/>
			<path d="M170,58.9c0.7,0,1.3-0.6,1.3-1.3c0-0.7-0.6-1.3-1.3-1.3c-0.7,0-1.3,0.6-1.3,1.3C168.7,58.3,169.3,58.9,170,58.9z"/>
			<path d="M184.4,58.9c0.7,0,1.3-0.6,1.3-1.3c0-0.7-0.6-1.3-1.3-1.3c-0.7,0-1.3,0.6-1.3,1.3C183.1,58.3,183.7,58.9,184.4,58.9z"/>
			<path d="M198.8,58.9c0.7,0,1.3-0.6,1.3-1.3c0-0.7-0.6-1.3-1.3-1.3c-0.7,0-1.3,0.6-1.3,1.3C197.5,58.3,198.1,58.9,198.8,58.9z"/>
			<circle cx="213.2" cy="57.6" r="1.3"/>
			<path d="M227.6,58.9c0.7,0,1.3-0.6,1.3-1.3c0-0.7-0.6-1.3-1.3-1.3c-0.7,0-1.3,0.6-1.3,1.3C226.3,58.3,226.9,58.9,227.6,58.9z"/>
			<path d="M242,58.9c0.7,0,1.3-0.6,1.3-1.3c0-0.7-0.6-1.3-1.3-1.3c-0.7,0-1.3,0.6-1.3,1.3C240.7,58.3,241.3,58.9,242,58.9z"/>
			<path d="M256.4,58.9c0.7,0,1.3-0.6,1.3-1.3c0-0.7-0.6-1.3-1.3-1.3c-0.7,0-1.3,0.6-1.3,1.3C255.1,58.3,255.7,58.9,256.4,58.9z"/>
			<path d="M270.8,58.9c0.7,0,1.3-0.6,1.3-1.3c0-0.7-0.6-1.3-1.3-1.3c-0.7,0-1.3,0.6-1.3,1.3C269.5,58.3,270.1,58.9,270.8,58.9z"/>
			<circle cx="285.2" cy="57.6" r="1.3"/>
			<path d="M-10,73.3c0.7,0,1.3-0.6,1.3-1.3s-0.6-1.3-1.3-1.3c-0.7,0-1.3,0.6-1.3,1.3S-10.7,73.3-10,73.3z"/>
			<path d="M4.4,73.3c0.7,0,1.3-0.6,1.3-1.3s-0.6-1.3-1.3-1.3c-0.7,0-1.3,0.6-1.3,1.3S3.7,73.3,4.4,73.3z"/>
			<path d="M18.8,73.3c0.7,0,1.3-0.6,1.3-1.3s-0.6-1.3-1.3-1.3c-0.7,0-1.3,0.6-1.3,1.3S18.1,73.3,18.8,73.3z"/>
			<circle cx="33.2" cy="72" r="1.3"/>
			<path d="M47.6,73.3c0.7,0,1.3-0.6,1.3-1.3s-0.6-1.3-1.3-1.3c-0.7,0-1.3,0.6-1.3,1.3S46.9,73.3,47.6,73.3z"/>
			<path d="M62,73.3c0.7,0,1.3-0.6,1.3-1.3s-0.6-1.3-1.3-1.3c-0.7,0-1.3,0.6-1.3,1.3S61.3,73.3,62,73.3z"/>
			<path d="M76.4,73.3c0.7,0,1.3-0.6,1.3-1.3s-0.6-1.3-1.3-1.3c-0.7,0-1.3,0.6-1.3,1.3S75.7,73.3,76.4,73.3z"/>
			<path d="M90.8,73.3c0.7,0,1.3-0.6,1.3-1.3s-0.6-1.3-1.3-1.3c-0.7,0-1.3,0.6-1.3,1.3S90.1,73.3,90.8,73.3z"/>
			<circle cx="105.2" cy="72" r="1.3"/>
			<path d="M119.6,73.3c0.7,0,1.3-0.6,1.3-1.3s-0.6-1.3-1.3-1.3c-0.7,0-1.3,0.6-1.3,1.3S118.9,73.3,119.6,73.3z"/>
			<path d="M134,73.3c0.7,0,1.3-0.6,1.3-1.3s-0.6-1.3-1.3-1.3c-0.7,0-1.3,0.6-1.3,1.3S133.3,73.3,134,73.3z"/>
			<path d="M148.4,73.3c0.7,0,1.3-0.6,1.3-1.3s-0.6-1.3-1.3-1.3c-0.7,0-1.3,0.6-1.3,1.3S147.7,73.3,148.4,73.3z"/>
			<path d="M162.8,73.3c0.7,0,1.3-0.6,1.3-1.3s-0.6-1.3-1.3-1.3c-0.7,0-1.3,0.6-1.3,1.3S162.1,73.3,162.8,73.3z"/>
			<circle cx="177.2" cy="72" r="1.3"/>
			<path d="M191.6,73.3c0.7,0,1.3-0.6,1.3-1.3s-0.6-1.3-1.3-1.3c-0.7,0-1.3,0.6-1.3,1.3S190.9,73.3,191.6,73.3z"/>
			<path d="M206,73.3c0.7,0,1.3-0.6,1.3-1.3s-0.6-1.3-1.3-1.3c-0.7,0-1.3,0.6-1.3,1.3S205.3,73.3,206,73.3z"/>
			<path d="M220.4,73.3c0.7,0,1.3-0.6,1.3-1.3s-0.6-1.3-1.3-1.3c-0.7,0-1.3,0.6-1.3,1.3S219.7,73.3,220.4,73.3z"/>
			<path d="M234.8,73.3c0.7,0,1.3-0.6,1.3-1.3s-0.6-1.3-1.3-1.3c-0.7,0-1.3,0.6-1.3,1.3S234.1,73.3,234.8,73.3z"/>
			<circle cx="249.2" cy="72" r="1.3"/>
			<path d="M263.6,73.3c0.7,0,1.3-0.6,1.3-1.3s-0.6-1.3-1.3-1.3c-0.7,0-1.3,0.6-1.3,1.3S262.9,73.3,263.6,73.3z"/>
			<path d="M278,73.3c0.7,0,1.3-0.6,1.3-1.3s-0.6-1.3-1.3-1.3c-0.7,0-1.3,0.6-1.3,1.3S277.3,73.3,278,73.3z"/>
			<path d="M292.4,73.3c0.7,0,1.3-0.6,1.3-1.3s-0.6-1.3-1.3-1.3c-0.7,0-1.3,0.6-1.3,1.3S291.7,73.3,292.4,73.3z"/>
			<path d="M-17.2,87.7c0.7,0,1.3-0.6,1.3-1.3c0-0.7-0.6-1.3-1.3-1.3c-0.7,0-1.3,0.6-1.3,1.3C-18.5,87.1-17.9,87.7-17.2,87.7z"/>
			<path d="M-2.8,87.7c0.7,0,1.3-0.6,1.3-1.3c0-0.7-0.6-1.3-1.3-1.3s-1.3,0.6-1.3,1.3C-4.1,87.1-3.5,87.7-2.8,87.7z"/>
			<path d="M11.6,87.7c0.7,0,1.3-0.6,1.3-1.3c0-0.7-0.6-1.3-1.3-1.3c-0.7,0-1.3,0.6-1.3,1.3C10.3,87.1,10.9,87.7,11.6,87.7z"/>
			<path d="M26,87.7c0.7,0,1.3-0.6,1.3-1.3c0-0.7-0.6-1.3-1.3-1.3c-0.7,0-1.3,0.6-1.3,1.3C24.7,87.1,25.3,87.7,26,87.7z"/>
			<path d="M40.4,87.7c0.7,0,1.3-0.6,1.3-1.3c0-0.7-0.6-1.3-1.3-1.3c-0.7,0-1.3,0.6-1.3,1.3C39.1,87.1,39.7,87.7,40.4,87.7z"/>
			<path d="M54.8,87.7c0.7,0,1.3-0.6,1.3-1.3c0-0.7-0.6-1.3-1.3-1.3c-0.7,0-1.3,0.6-1.3,1.3C53.5,87.1,54.1,87.7,54.8,87.7z"/>
			<path d="M69.2,87.7c0.7,0,1.3-0.6,1.3-1.3c0-0.7-0.6-1.3-1.3-1.3s-1.3,0.6-1.3,1.3C67.9,87.1,68.5,87.7,69.2,87.7z"/>
			<path d="M83.6,87.7c0.7,0,1.3-0.6,1.3-1.3c0-0.7-0.6-1.3-1.3-1.3c-0.7,0-1.3,0.6-1.3,1.3C82.3,87.1,82.9,87.7,83.6,87.7z"/>
			<path d="M98,87.7c0.7,0,1.3-0.6,1.3-1.3c0-0.7-0.6-1.3-1.3-1.3c-0.7,0-1.3,0.6-1.3,1.3C96.7,87.1,97.3,87.7,98,87.7z"/>
			<path d="M112.4,87.7c0.7,0,1.3-0.6,1.3-1.3c0-0.7-0.6-1.3-1.3-1.3c-0.7,0-1.3,0.6-1.3,1.3C111.1,87.1,111.7,87.7,112.4,87.7z"/>
			<path d="M126.8,87.7c0.7,0,1.3-0.6,1.3-1.3c0-0.7-0.6-1.3-1.3-1.3c-0.7,0-1.3,0.6-1.3,1.3C125.5,87.1,126.1,87.7,126.8,87.7z"/>
			<path d="M141.2,87.7c0.7,0,1.3-0.6,1.3-1.3c0-0.7-0.6-1.3-1.3-1.3s-1.3,0.6-1.3,1.3C139.9,87.1,140.5,87.7,141.2,87.7z"/>
			<path d="M155.6,87.7c0.7,0,1.3-0.6,1.3-1.3c0-0.7-0.6-1.3-1.3-1.3c-0.7,0-1.3,0.6-1.3,1.3C154.3,87.1,154.9,87.7,155.6,87.7z"/>
			<path d="M170,87.7c0.7,0,1.3-0.6,1.3-1.3c0-0.7-0.6-1.3-1.3-1.3c-0.7,0-1.3,0.6-1.3,1.3C168.7,87.1,169.3,87.7,170,87.7z"/>
			<path d="M184.4,87.7c0.7,0,1.3-0.6,1.3-1.3c0-0.7-0.6-1.3-1.3-1.3c-0.7,0-1.3,0.6-1.3,1.3C183.1,87.1,183.7,87.7,184.4,87.7z"/>
			<path d="M198.8,87.7c0.7,0,1.3-0.6,1.3-1.3c0-0.7-0.6-1.3-1.3-1.3c-0.7,0-1.3,0.6-1.3,1.3C197.5,87.1,198.1,87.7,198.8,87.7z"/>
			<path d="M213.2,87.7c0.7,0,1.3-0.6,1.3-1.3c0-0.7-0.6-1.3-1.3-1.3s-1.3,0.6-1.3,1.3C211.9,87.1,212.5,87.7,213.2,87.7z"/>
			<path d="M227.6,87.7c0.7,0,1.3-0.6,1.3-1.3c0-0.7-0.6-1.3-1.3-1.3c-0.7,0-1.3,0.6-1.3,1.3C226.3,87.1,226.9,87.7,227.6,87.7z"/>
			<path d="M242,87.7c0.7,0,1.3-0.6,1.3-1.3c0-0.7-0.6-1.3-1.3-1.3c-0.7,0-1.3,0.6-1.3,1.3C240.7,87.1,241.3,87.7,242,87.7z"/>
			<path d="M256.4,87.7c0.7,0,1.3-0.6,1.3-1.3c0-0.7-0.6-1.3-1.3-1.3c-0.7,0-1.3,0.6-1.3,1.3C255.1,87.1,255.7,87.7,256.4,87.7z"/>
			<path d="M270.8,87.7c0.7,0,1.3-0.6,1.3-1.3c0-0.7-0.6-1.3-1.3-1.3c-0.7,0-1.3,0.6-1.3,1.3C269.5,87.1,270.1,87.7,270.8,87.7z"/>
			<path d="M285.2,87.7c0.7,0,1.3-0.6,1.3-1.3c0-0.7-0.6-1.3-1.3-1.3c-0.7,0-1.3,0.6-1.3,1.3C283.9,87.1,284.5,87.7,285.2,87.7z"/>
			<path d="M-10,102.1c0.7,0,1.3-0.6,1.3-1.3c0-0.7-0.6-1.3-1.3-1.3c-0.7,0-1.3,0.6-1.3,1.3C-11.3,101.5-10.7,102.1-10,102.1z"/>
			<path d="M4.4,102.1c0.7,0,1.3-0.6,1.3-1.3c0-0.7-0.6-1.3-1.3-1.3c-0.7,0-1.3,0.6-1.3,1.3C3.1,101.5,3.7,102.1,4.4,102.1z"/>
			<path d="M18.8,102.1c0.7,0,1.3-0.6,1.3-1.3c0-0.7-0.6-1.3-1.3-1.3c-0.7,0-1.3,0.6-1.3,1.3C17.5,101.5,18.1,102.1,18.8,102.1z"/>
			<path d="M33.2,102.1c0.7,0,1.3-0.6,1.3-1.3c0-0.7-0.6-1.3-1.3-1.3s-1.3,0.6-1.3,1.3C31.9,101.5,32.5,102.1,33.2,102.1z"/>
			<path d="M47.6,102.1c0.7,0,1.3-0.6,1.3-1.3c0-0.7-0.6-1.3-1.3-1.3c-0.7,0-1.3,0.6-1.3,1.3C46.3,101.5,46.9,102.1,47.6,102.1z"/>
			<path d="M62,102.1c0.7,0,1.3-0.6,1.3-1.3c0-0.7-0.6-1.3-1.3-1.3c-0.7,0-1.3,0.6-1.3,1.3C60.7,101.5,61.3,102.1,62,102.1z"/>
			<path d="M76.4,102.1c0.7,0,1.3-0.6,1.3-1.3c0-0.7-0.6-1.3-1.3-1.3c-0.7,0-1.3,0.6-1.3,1.3C75.1,101.5,75.7,102.1,76.4,102.1z"/>
			<path d="M90.8,102.1c0.7,0,1.3-0.6,1.3-1.3c0-0.7-0.6-1.3-1.3-1.3c-0.7,0-1.3,0.6-1.3,1.3C89.5,101.5,90.1,102.1,90.8,102.1z"/>
			<path d="M105.2,102.1c0.7,0,1.3-0.6,1.3-1.3c0-0.7-0.6-1.3-1.3-1.3s-1.3,0.6-1.3,1.3C103.9,101.5,104.5,102.1,105.2,102.1z"/>
			<path d="M119.6,102.1c0.7,0,1.3-0.6,1.3-1.3c0-0.7-0.6-1.3-1.3-1.3c-0.7,0-1.3,0.6-1.3,1.3C118.3,101.5,118.9,102.1,119.6,102.1z
				"/>
			<path d="M134,102.1c0.7,0,1.3-0.6,1.3-1.3c0-0.7-0.6-1.3-1.3-1.3c-0.7,0-1.3,0.6-1.3,1.3C132.7,101.5,133.3,102.1,134,102.1z"/>
			<path d="M148.4,102.1c0.7,0,1.3-0.6,1.3-1.3c0-0.7-0.6-1.3-1.3-1.3c-0.7,0-1.3,0.6-1.3,1.3C147.1,101.5,147.7,102.1,148.4,102.1z
				"/>
			<path d="M162.8,102.1c0.7,0,1.3-0.6,1.3-1.3c0-0.7-0.6-1.3-1.3-1.3c-0.7,0-1.3,0.6-1.3,1.3C161.5,101.5,162.1,102.1,162.8,102.1z
				"/>
			<path d="M177.2,102.1c0.7,0,1.3-0.6,1.3-1.3c0-0.7-0.6-1.3-1.3-1.3s-1.3,0.6-1.3,1.3C175.9,101.5,176.5,102.1,177.2,102.1z"/>
			<path d="M191.6,102.1c0.7,0,1.3-0.6,1.3-1.3c0-0.7-0.6-1.3-1.3-1.3c-0.7,0-1.3,0.6-1.3,1.3C190.3,101.5,190.9,102.1,191.6,102.1z
				"/>
			<path d="M206,102.1c0.7,0,1.3-0.6,1.3-1.3c0-0.7-0.6-1.3-1.3-1.3c-0.7,0-1.3,0.6-1.3,1.3C204.7,101.5,205.3,102.1,206,102.1z"/>
			<path d="M220.4,102.1c0.7,0,1.3-0.6,1.3-1.3c0-0.7-0.6-1.3-1.3-1.3c-0.7,0-1.3,0.6-1.3,1.3C219.1,101.5,219.7,102.1,220.4,102.1z
				"/>
			<path d="M234.8,102.1c0.7,0,1.3-0.6,1.3-1.3c0-0.7-0.6-1.3-1.3-1.3c-0.7,0-1.3,0.6-1.3,1.3C233.5,101.5,234.1,102.1,234.8,102.1z
				"/>
			<path d="M249.2,102.1c0.7,0,1.3-0.6,1.3-1.3c0-0.7-0.6-1.3-1.3-1.3s-1.3,0.6-1.3,1.3C247.9,101.5,248.5,102.1,249.2,102.1z"/>
			<path d="M263.6,102.1c0.7,0,1.3-0.6,1.3-1.3c0-0.7-0.6-1.3-1.3-1.3c-0.7,0-1.3,0.6-1.3,1.3C262.3,101.5,262.9,102.1,263.6,102.1z
				"/>
			<path d="M278,102.1c0.7,0,1.3-0.6,1.3-1.3c0-0.7-0.6-1.3-1.3-1.3c-0.7,0-1.3,0.6-1.3,1.3C276.7,101.5,277.3,102.1,278,102.1z"/>
			<path d="M292.4,102.1c0.7,0,1.3-0.6,1.3-1.3c0-0.7-0.6-1.3-1.3-1.3c-0.7,0-1.3,0.6-1.3,1.3C291.1,101.5,291.7,102.1,292.4,102.1z
				"/>
			<path d="M-17.2,116.5c0.7,0,1.3-0.6,1.3-1.3c0-0.7-0.6-1.3-1.3-1.3c-0.7,0-1.3,0.6-1.3,1.3C-18.5,115.9-17.9,116.5-17.2,116.5z"
				/>
			<path d="M-2.8,116.5c0.7,0,1.3-0.6,1.3-1.3c0-0.7-0.6-1.3-1.3-1.3s-1.3,0.6-1.3,1.3C-4.1,115.9-3.5,116.5-2.8,116.5z"/>
			<path d="M11.6,116.5c0.7,0,1.3-0.6,1.3-1.3c0-0.7-0.6-1.3-1.3-1.3c-0.7,0-1.3,0.6-1.3,1.3C10.3,115.9,10.9,116.5,11.6,116.5z"/>
			<path d="M26,116.5c0.7,0,1.3-0.6,1.3-1.3c0-0.7-0.6-1.3-1.3-1.3c-0.7,0-1.3,0.6-1.3,1.3C24.7,115.9,25.3,116.5,26,116.5z"/>
			<path d="M40.4,116.5c0.7,0,1.3-0.6,1.3-1.3c0-0.7-0.6-1.3-1.3-1.3c-0.7,0-1.3,0.6-1.3,1.3C39.1,115.9,39.7,116.5,40.4,116.5z"/>
			<path d="M54.8,116.5c0.7,0,1.3-0.6,1.3-1.3c0-0.7-0.6-1.3-1.3-1.3c-0.7,0-1.3,0.6-1.3,1.3C53.5,115.9,54.1,116.5,54.8,116.5z"/>
			<path d="M69.2,116.5c0.7,0,1.3-0.6,1.3-1.3c0-0.7-0.6-1.3-1.3-1.3s-1.3,0.6-1.3,1.3C67.9,115.9,68.5,116.5,69.2,116.5z"/>
			<path d="M83.6,116.5c0.7,0,1.3-0.6,1.3-1.3c0-0.7-0.6-1.3-1.3-1.3c-0.7,0-1.3,0.6-1.3,1.3C82.3,115.9,82.9,116.5,83.6,116.5z"/>
			<path d="M98,116.5c0.7,0,1.3-0.6,1.3-1.3c0-0.7-0.6-1.3-1.3-1.3c-0.7,0-1.3,0.6-1.3,1.3C96.7,115.9,97.3,116.5,98,116.5z"/>
			<path d="M112.4,116.5c0.7,0,1.3-0.6,1.3-1.3c0-0.7-0.6-1.3-1.3-1.3c-0.7,0-1.3,0.6-1.3,1.3C111.1,115.9,111.7,116.5,112.4,116.5z
				"/>
			<path d="M126.8,116.5c0.7,0,1.3-0.6,1.3-1.3c0-0.7-0.6-1.3-1.3-1.3c-0.7,0-1.3,0.6-1.3,1.3C125.5,115.9,126.1,116.5,126.8,116.5z
				"/>
			<path d="M141.2,116.5c0.7,0,1.3-0.6,1.3-1.3c0-0.7-0.6-1.3-1.3-1.3s-1.3,0.6-1.3,1.3C139.9,115.9,140.5,116.5,141.2,116.5z"/>
			<path d="M155.6,116.5c0.7,0,1.3-0.6,1.3-1.3c0-0.7-0.6-1.3-1.3-1.3c-0.7,0-1.3,0.6-1.3,1.3C154.3,115.9,154.9,116.5,155.6,116.5z
				"/>
			<path d="M170,116.5c0.7,0,1.3-0.6,1.3-1.3c0-0.7-0.6-1.3-1.3-1.3c-0.7,0-1.3,0.6-1.3,1.3C168.7,115.9,169.3,116.5,170,116.5z"/>
			<path d="M184.4,116.5c0.7,0,1.3-0.6,1.3-1.3c0-0.7-0.6-1.3-1.3-1.3c-0.7,0-1.3,0.6-1.3,1.3C183.1,115.9,183.7,116.5,184.4,116.5z
				"/>
			<path d="M198.8,116.5c0.7,0,1.3-0.6,1.3-1.3c0-0.7-0.6-1.3-1.3-1.3c-0.7,0-1.3,0.6-1.3,1.3C197.5,115.9,198.1,116.5,198.8,116.5z
				"/>
			<path d="M213.2,116.5c0.7,0,1.3-0.6,1.3-1.3c0-0.7-0.6-1.3-1.3-1.3s-1.3,0.6-1.3,1.3C211.9,115.9,212.5,116.5,213.2,116.5z"/>
			<path d="M227.6,116.5c0.7,0,1.3-0.6,1.3-1.3c0-0.7-0.6-1.3-1.3-1.3c-0.7,0-1.3,0.6-1.3,1.3C226.3,115.9,226.9,116.5,227.6,116.5z
				"/>
			<path d="M242,116.5c0.7,0,1.3-0.6,1.3-1.3c0-0.7-0.6-1.3-1.3-1.3c-0.7,0-1.3,0.6-1.3,1.3C240.7,115.9,241.3,116.5,242,116.5z"/>
			<path d="M256.4,116.5c0.7,0,1.3-0.6,1.3-1.3c0-0.7-0.6-1.3-1.3-1.3c-0.7,0-1.3,0.6-1.3,1.3C255.1,115.9,255.7,116.5,256.4,116.5z
				"/>
			<path d="M270.8,116.5c0.7,0,1.3-0.6,1.3-1.3c0-0.7-0.6-1.3-1.3-1.3c-0.7,0-1.3,0.6-1.3,1.3C269.5,115.9,270.1,116.5,270.8,116.5z
				"/>
			<path d="M285.2,116.5c0.7,0,1.3-0.6,1.3-1.3c0-0.7-0.6-1.3-1.3-1.3c-0.7,0-1.3,0.6-1.3,1.3C283.9,115.9,284.5,116.5,285.2,116.5z
				"/>
			<path d="M-10,130.9c0.7,0,1.3-0.6,1.3-1.3s-0.6-1.3-1.3-1.3c-0.7,0-1.3,0.6-1.3,1.3S-10.7,130.9-10,130.9z"/>
			<path d="M4.4,130.9c0.7,0,1.3-0.6,1.3-1.3s-0.6-1.3-1.3-1.3c-0.7,0-1.3,0.6-1.3,1.3S3.7,130.9,4.4,130.9z"/>
			<path d="M18.8,130.9c0.7,0,1.3-0.6,1.3-1.3s-0.6-1.3-1.3-1.3c-0.7,0-1.3,0.6-1.3,1.3S18.1,130.9,18.8,130.9z"/>
			<circle cx="33.2" cy="129.6" r="1.3"/>
			<path d="M47.6,130.9c0.7,0,1.3-0.6,1.3-1.3s-0.6-1.3-1.3-1.3c-0.7,0-1.3,0.6-1.3,1.3S46.9,130.9,47.6,130.9z"/>
			<path d="M62,130.9c0.7,0,1.3-0.6,1.3-1.3s-0.6-1.3-1.3-1.3c-0.7,0-1.3,0.6-1.3,1.3S61.3,130.9,62,130.9z"/>
			<path d="M76.4,130.9c0.7,0,1.3-0.6,1.3-1.3s-0.6-1.3-1.3-1.3c-0.7,0-1.3,0.6-1.3,1.3S75.7,130.9,76.4,130.9z"/>
			<path d="M90.8,130.9c0.7,0,1.3-0.6,1.3-1.3s-0.6-1.3-1.3-1.3c-0.7,0-1.3,0.6-1.3,1.3S90.1,130.9,90.8,130.9z"/>
			<circle cx="105.2" cy="129.6" r="1.3"/>
			<path d="M119.6,130.9c0.7,0,1.3-0.6,1.3-1.3s-0.6-1.3-1.3-1.3c-0.7,0-1.3,0.6-1.3,1.3S118.9,130.9,119.6,130.9z"/>
			<path d="M134,130.9c0.7,0,1.3-0.6,1.3-1.3s-0.6-1.3-1.3-1.3c-0.7,0-1.3,0.6-1.3,1.3S133.3,130.9,134,130.9z"/>
			<path d="M148.4,130.9c0.7,0,1.3-0.6,1.3-1.3s-0.6-1.3-1.3-1.3c-0.7,0-1.3,0.6-1.3,1.3S147.7,130.9,148.4,130.9z"/>
			<path d="M162.8,130.9c0.7,0,1.3-0.6,1.3-1.3s-0.6-1.3-1.3-1.3c-0.7,0-1.3,0.6-1.3,1.3S162.1,130.9,162.8,130.9z"/>
			<circle cx="177.2" cy="129.6" r="1.3"/>
			<path d="M191.6,130.9c0.7,0,1.3-0.6,1.3-1.3s-0.6-1.3-1.3-1.3c-0.7,0-1.3,0.6-1.3,1.3S190.9,130.9,191.6,130.9z"/>
			<path d="M206,130.9c0.7,0,1.3-0.6,1.3-1.3s-0.6-1.3-1.3-1.3c-0.7,0-1.3,0.6-1.3,1.3S205.3,130.9,206,130.9z"/>
			<path d="M220.4,130.9c0.7,0,1.3-0.6,1.3-1.3s-0.6-1.3-1.3-1.3c-0.7,0-1.3,0.6-1.3,1.3S219.7,130.9,220.4,130.9z"/>
			<path d="M234.8,130.9c0.7,0,1.3-0.6,1.3-1.3s-0.6-1.3-1.3-1.3c-0.7,0-1.3,0.6-1.3,1.3S234.1,130.9,234.8,130.9z"/>
			<circle cx="249.2" cy="129.6" r="1.3"/>
			<path d="M263.6,130.9c0.7,0,1.3-0.6,1.3-1.3s-0.6-1.3-1.3-1.3c-0.7,0-1.3,0.6-1.3,1.3S262.9,130.9,263.6,130.9z"/>
			<path d="M278,130.9c0.7,0,1.3-0.6,1.3-1.3s-0.6-1.3-1.3-1.3c-0.7,0-1.3,0.6-1.3,1.3S277.3,130.9,278,130.9z"/>
			<path d="M292.4,130.9c0.7,0,1.3-0.6,1.3-1.3s-0.6-1.3-1.3-1.3c-0.7,0-1.3,0.6-1.3,1.3S291.7,130.9,292.4,130.9z"/>
			<path d="M-17.2,145.3c0.7,0,1.3-0.6,1.3-1.3s-0.6-1.3-1.3-1.3c-0.7,0-1.3,0.6-1.3,1.3S-17.9,145.3-17.2,145.3z"/>
			<circle cx="-2.8" cy="144" r="1.3"/>
			<path d="M11.6,145.3c0.7,0,1.3-0.6,1.3-1.3s-0.6-1.3-1.3-1.3c-0.7,0-1.3,0.6-1.3,1.3S10.9,145.3,11.6,145.3z"/>
			<path d="M26,145.3c0.7,0,1.3-0.6,1.3-1.3s-0.6-1.3-1.3-1.3c-0.7,0-1.3,0.6-1.3,1.3S25.3,145.3,26,145.3z"/>
			<path d="M40.4,145.3c0.7,0,1.3-0.6,1.3-1.3s-0.6-1.3-1.3-1.3c-0.7,0-1.3,0.6-1.3,1.3S39.7,145.3,40.4,145.3z"/>
			<path d="M54.8,145.3c0.7,0,1.3-0.6,1.3-1.3s-0.6-1.3-1.3-1.3c-0.7,0-1.3,0.6-1.3,1.3S54.1,145.3,54.8,145.3z"/>
			<circle cx="69.2" cy="144" r="1.3"/>
			<path d="M83.6,145.3c0.7,0,1.3-0.6,1.3-1.3s-0.6-1.3-1.3-1.3c-0.7,0-1.3,0.6-1.3,1.3S82.9,145.3,83.6,145.3z"/>
			<path d="M98,145.3c0.7,0,1.3-0.6,1.3-1.3s-0.6-1.3-1.3-1.3c-0.7,0-1.3,0.6-1.3,1.3S97.3,145.3,98,145.3z"/>
			<path d="M112.4,145.3c0.7,0,1.3-0.6,1.3-1.3s-0.6-1.3-1.3-1.3c-0.7,0-1.3,0.6-1.3,1.3S111.7,145.3,112.4,145.3z"/>
			<path d="M126.8,145.3c0.7,0,1.3-0.6,1.3-1.3s-0.6-1.3-1.3-1.3c-0.7,0-1.3,0.6-1.3,1.3S126.1,145.3,126.8,145.3z"/>
			<circle cx="141.2" cy="144" r="1.3"/>
			<path d="M155.6,145.3c0.7,0,1.3-0.6,1.3-1.3s-0.6-1.3-1.3-1.3c-0.7,0-1.3,0.6-1.3,1.3S154.9,145.3,155.6,145.3z"/>
			<path d="M170,145.3c0.7,0,1.3-0.6,1.3-1.3s-0.6-1.3-1.3-1.3c-0.7,0-1.3,0.6-1.3,1.3S169.3,145.3,170,145.3z"/>
			<path d="M184.4,145.3c0.7,0,1.3-0.6,1.3-1.3s-0.6-1.3-1.3-1.3c-0.7,0-1.3,0.6-1.3,1.3S183.7,145.3,184.4,145.3z"/>
			<path d="M198.8,145.3c0.7,0,1.3-0.6,1.3-1.3s-0.6-1.3-1.3-1.3c-0.7,0-1.3,0.6-1.3,1.3S198.1,145.3,198.8,145.3z"/>
			<circle cx="213.2" cy="144" r="1.3"/>
			<path d="M227.6,145.3c0.7,0,1.3-0.6,1.3-1.3s-0.6-1.3-1.3-1.3c-0.7,0-1.3,0.6-1.3,1.3S226.9,145.3,227.6,145.3z"/>
			<path d="M242,145.3c0.7,0,1.3-0.6,1.3-1.3s-0.6-1.3-1.3-1.3c-0.7,0-1.3,0.6-1.3,1.3S241.3,145.3,242,145.3z"/>
			<path d="M256.4,145.3c0.7,0,1.3-0.6,1.3-1.3s-0.6-1.3-1.3-1.3c-0.7,0-1.3,0.6-1.3,1.3S255.7,145.3,256.4,145.3z"/>
			<path d="M270.8,145.3c0.7,0,1.3-0.6,1.3-1.3s-0.6-1.3-1.3-1.3c-0.7,0-1.3,0.6-1.3,1.3S270.1,145.3,270.8,145.3z"/>
			<circle cx="285.2" cy="144" r="1.3"/>
			<path d="M-10,159.7c0.7,0,1.3-0.6,1.3-1.3c0-0.7-0.6-1.3-1.3-1.3c-0.7,0-1.3,0.6-1.3,1.3C-11.3,159.1-10.7,159.7-10,159.7z"/>
			<path d="M4.4,159.7c0.7,0,1.3-0.6,1.3-1.3c0-0.7-0.6-1.3-1.3-1.3c-0.7,0-1.3,0.6-1.3,1.3C3.1,159.1,3.7,159.7,4.4,159.7z"/>
			<path d="M18.8,159.7c0.7,0,1.3-0.6,1.3-1.3c0-0.7-0.6-1.3-1.3-1.3c-0.7,0-1.3,0.6-1.3,1.3C17.5,159.1,18.1,159.7,18.8,159.7z"/>
			<path d="M33.2,159.7c0.7,0,1.3-0.6,1.3-1.3c0-0.7-0.6-1.3-1.3-1.3s-1.3,0.6-1.3,1.3C31.9,159.1,32.5,159.7,33.2,159.7z"/>
			<path d="M47.6,159.7c0.7,0,1.3-0.6,1.3-1.3c0-0.7-0.6-1.3-1.3-1.3c-0.7,0-1.3,0.6-1.3,1.3C46.3,159.1,46.9,159.7,47.6,159.7z"/>
			<path d="M62,159.7c0.7,0,1.3-0.6,1.3-1.3c0-0.7-0.6-1.3-1.3-1.3c-0.7,0-1.3,0.6-1.3,1.3C60.7,159.1,61.3,159.7,62,159.7z"/>
			<path d="M76.4,159.7c0.7,0,1.3-0.6,1.3-1.3c0-0.7-0.6-1.3-1.3-1.3c-0.7,0-1.3,0.6-1.3,1.3C75.1,159.1,75.7,159.7,76.4,159.7z"/>
			<path d="M90.8,159.7c0.7,0,1.3-0.6,1.3-1.3c0-0.7-0.6-1.3-1.3-1.3c-0.7,0-1.3,0.6-1.3,1.3C89.5,159.1,90.1,159.7,90.8,159.7z"/>
			<path d="M105.2,159.7c0.7,0,1.3-0.6,1.3-1.3c0-0.7-0.6-1.3-1.3-1.3s-1.3,0.6-1.3,1.3C103.9,159.1,104.5,159.7,105.2,159.7z"/>
			<path d="M119.6,159.7c0.7,0,1.3-0.6,1.3-1.3c0-0.7-0.6-1.3-1.3-1.3c-0.7,0-1.3,0.6-1.3,1.3C118.3,159.1,118.9,159.7,119.6,159.7z
				"/>
			<path d="M134,159.7c0.7,0,1.3-0.6,1.3-1.3c0-0.7-0.6-1.3-1.3-1.3c-0.7,0-1.3,0.6-1.3,1.3C132.7,159.1,133.3,159.7,134,159.7z"/>
			<path d="M148.4,159.7c0.7,0,1.3-0.6,1.3-1.3c0-0.7-0.6-1.3-1.3-1.3c-0.7,0-1.3,0.6-1.3,1.3C147.1,159.1,147.7,159.7,148.4,159.7z
				"/>
			<path d="M162.8,159.7c0.7,0,1.3-0.6,1.3-1.3c0-0.7-0.6-1.3-1.3-1.3c-0.7,0-1.3,0.6-1.3,1.3C161.5,159.1,162.1,159.7,162.8,159.7z
				"/>
			<path d="M177.2,159.7c0.7,0,1.3-0.6,1.3-1.3c0-0.7-0.6-1.3-1.3-1.3s-1.3,0.6-1.3,1.3C175.9,159.1,176.5,159.7,177.2,159.7z"/>
			<path d="M191.6,159.7c0.7,0,1.3-0.6,1.3-1.3c0-0.7-0.6-1.3-1.3-1.3c-0.7,0-1.3,0.6-1.3,1.3C190.3,159.1,190.9,159.7,191.6,159.7z
				"/>
			<path d="M206,159.7c0.7,0,1.3-0.6,1.3-1.3c0-0.7-0.6-1.3-1.3-1.3c-0.7,0-1.3,0.6-1.3,1.3C204.7,159.1,205.3,159.7,206,159.7z"/>
			<path d="M220.4,159.7c0.7,0,1.3-0.6,1.3-1.3c0-0.7-0.6-1.3-1.3-1.3c-0.7,0-1.3,0.6-1.3,1.3C219.1,159.1,219.7,159.7,220.4,159.7z
				"/>
			<path d="M234.8,159.7c0.7,0,1.3-0.6,1.3-1.3c0-0.7-0.6-1.3-1.3-1.3c-0.7,0-1.3,0.6-1.3,1.3C233.5,159.1,234.1,159.7,234.8,159.7z
				"/>
			<path d="M249.2,159.7c0.7,0,1.3-0.6,1.3-1.3c0-0.7-0.6-1.3-1.3-1.3s-1.3,0.6-1.3,1.3C247.9,159.1,248.5,159.7,249.2,159.7z"/>
			<path d="M263.6,159.7c0.7,0,1.3-0.6,1.3-1.3c0-0.7-0.6-1.3-1.3-1.3c-0.7,0-1.3,0.6-1.3,1.3C262.3,159.1,262.9,159.7,263.6,159.7z
				"/>
			<path d="M278,159.7c0.7,0,1.3-0.6,1.3-1.3c0-0.7-0.6-1.3-1.3-1.3c-0.7,0-1.3,0.6-1.3,1.3C276.7,159.1,277.3,159.7,278,159.7z"/>
			<path d="M292.4,159.7c0.7,0,1.3-0.6,1.3-1.3c0-0.7-0.6-1.3-1.3-1.3c-0.7,0-1.3,0.6-1.3,1.3C291.1,159.1,291.7,159.7,292.4,159.7z
				"/>
			<path d="M-17.2,174.1c0.7,0,1.3-0.6,1.3-1.3c0-0.7-0.6-1.3-1.3-1.3c-0.7,0-1.3,0.6-1.3,1.3C-18.5,173.5-17.9,174.1-17.2,174.1z"
				/>
			<path d="M-2.8,174.1c0.7,0,1.3-0.6,1.3-1.3c0-0.7-0.6-1.3-1.3-1.3s-1.3,0.6-1.3,1.3C-4.1,173.5-3.5,174.1-2.8,174.1z"/>
			<path d="M11.6,174.1c0.7,0,1.3-0.6,1.3-1.3c0-0.7-0.6-1.3-1.3-1.3c-0.7,0-1.3,0.6-1.3,1.3C10.3,173.5,10.9,174.1,11.6,174.1z"/>
			<path d="M26,174.1c0.7,0,1.3-0.6,1.3-1.3c0-0.7-0.6-1.3-1.3-1.3c-0.7,0-1.3,0.6-1.3,1.3C24.7,173.5,25.3,174.1,26,174.1z"/>
			<path d="M40.4,174.1c0.7,0,1.3-0.6,1.3-1.3c0-0.7-0.6-1.3-1.3-1.3c-0.7,0-1.3,0.6-1.3,1.3C39.1,173.5,39.7,174.1,40.4,174.1z"/>
			<path d="M54.8,174.1c0.7,0,1.3-0.6,1.3-1.3c0-0.7-0.6-1.3-1.3-1.3c-0.7,0-1.3,0.6-1.3,1.3C53.5,173.5,54.1,174.1,54.8,174.1z"/>
			<path d="M69.2,174.1c0.7,0,1.3-0.6,1.3-1.3c0-0.7-0.6-1.3-1.3-1.3s-1.3,0.6-1.3,1.3C67.9,173.5,68.5,174.1,69.2,174.1z"/>
			<path d="M83.6,174.1c0.7,0,1.3-0.6,1.3-1.3c0-0.7-0.6-1.3-1.3-1.3c-0.7,0-1.3,0.6-1.3,1.3C82.3,173.5,82.9,174.1,83.6,174.1z"/>
			<path d="M98,174.1c0.7,0,1.3-0.6,1.3-1.3c0-0.7-0.6-1.3-1.3-1.3c-0.7,0-1.3,0.6-1.3,1.3C96.7,173.5,97.3,174.1,98,174.1z"/>
			<path d="M112.4,174.1c0.7,0,1.3-0.6,1.3-1.3c0-0.7-0.6-1.3-1.3-1.3c-0.7,0-1.3,0.6-1.3,1.3C111.1,173.5,111.7,174.1,112.4,174.1z
				"/>
			<path d="M126.8,174.1c0.7,0,1.3-0.6,1.3-1.3c0-0.7-0.6-1.3-1.3-1.3c-0.7,0-1.3,0.6-1.3,1.3C125.5,173.5,126.1,174.1,126.8,174.1z
				"/>
			<path d="M141.2,174.1c0.7,0,1.3-0.6,1.3-1.3c0-0.7-0.6-1.3-1.3-1.3s-1.3,0.6-1.3,1.3C139.9,173.5,140.5,174.1,141.2,174.1z"/>
			<path d="M155.6,174.1c0.7,0,1.3-0.6,1.3-1.3c0-0.7-0.6-1.3-1.3-1.3c-0.7,0-1.3,0.6-1.3,1.3C154.3,173.5,154.9,174.1,155.6,174.1z
				"/>
			<path d="M170,174.1c0.7,0,1.3-0.6,1.3-1.3c0-0.7-0.6-1.3-1.3-1.3c-0.7,0-1.3,0.6-1.3,1.3C168.7,173.5,169.3,174.1,170,174.1z"/>
			<path d="M184.4,174.1c0.7,0,1.3-0.6,1.3-1.3c0-0.7-0.6-1.3-1.3-1.3c-0.7,0-1.3,0.6-1.3,1.3C183.1,173.5,183.7,174.1,184.4,174.1z
				"/>
			<path d="M198.8,174.1c0.7,0,1.3-0.6,1.3-1.3c0-0.7-0.6-1.3-1.3-1.3c-0.7,0-1.3,0.6-1.3,1.3C197.5,173.5,198.1,174.1,198.8,174.1z
				"/>
			<path d="M213.2,174.1c0.7,0,1.3-0.6,1.3-1.3c0-0.7-0.6-1.3-1.3-1.3s-1.3,0.6-1.3,1.3C211.9,173.5,212.5,174.1,213.2,174.1z"/>
			<path d="M227.6,174.1c0.7,0,1.3-0.6,1.3-1.3c0-0.7-0.6-1.3-1.3-1.3c-0.7,0-1.3,0.6-1.3,1.3C226.3,173.5,226.9,174.1,227.6,174.1z
				"/>
			<path d="M242,174.1c0.7,0,1.3-0.6,1.3-1.3c0-0.7-0.6-1.3-1.3-1.3c-0.7,0-1.3,0.6-1.3,1.3C240.7,173.5,241.3,174.1,242,174.1z"/>
			<path d="M256.4,174.1c0.7,0,1.3-0.6,1.3-1.3c0-0.7-0.6-1.3-1.3-1.3c-0.7,0-1.3,0.6-1.3,1.3C255.1,173.5,255.7,174.1,256.4,174.1z
				"/>
			<path d="M270.8,174.1c0.7,0,1.3-0.6,1.3-1.3c0-0.7-0.6-1.3-1.3-1.3c-0.7,0-1.3,0.6-1.3,1.3C269.5,173.5,270.1,174.1,270.8,174.1z
				"/>
			<path d="M285.2,174.1c0.7,0,1.3-0.6,1.3-1.3c0-0.7-0.6-1.3-1.3-1.3c-0.7,0-1.3,0.6-1.3,1.3C283.9,173.5,284.5,174.1,285.2,174.1z
				"/>
			<path d="M-10,188.5c0.7,0,1.3-0.6,1.3-1.3c0-0.7-0.6-1.3-1.3-1.3c-0.7,0-1.3,0.6-1.3,1.3C-11.3,187.9-10.7,188.5-10,188.5z"/>
			<path d="M4.4,188.5c0.7,0,1.3-0.6,1.3-1.3c0-0.7-0.6-1.3-1.3-1.3c-0.7,0-1.3,0.6-1.3,1.3C3.1,187.9,3.7,188.5,4.4,188.5z"/>
			<path d="M18.8,188.5c0.7,0,1.3-0.6,1.3-1.3c0-0.7-0.6-1.3-1.3-1.3c-0.7,0-1.3,0.6-1.3,1.3C17.5,187.9,18.1,188.5,18.8,188.5z"/>
			<path d="M33.2,188.5c0.7,0,1.3-0.6,1.3-1.3c0-0.7-0.6-1.3-1.3-1.3s-1.3,0.6-1.3,1.3C31.9,187.9,32.5,188.5,33.2,188.5z"/>
			<path d="M47.6,188.5c0.7,0,1.3-0.6,1.3-1.3c0-0.7-0.6-1.3-1.3-1.3c-0.7,0-1.3,0.6-1.3,1.3C46.3,187.9,46.9,188.5,47.6,188.5z"/>
			<path d="M62,188.5c0.7,0,1.3-0.6,1.3-1.3c0-0.7-0.6-1.3-1.3-1.3c-0.7,0-1.3,0.6-1.3,1.3C60.7,187.9,61.3,188.5,62,188.5z"/>
			<path d="M76.4,188.5c0.7,0,1.3-0.6,1.3-1.3c0-0.7-0.6-1.3-1.3-1.3c-0.7,0-1.3,0.6-1.3,1.3C75.1,187.9,75.7,188.5,76.4,188.5z"/>
			<path d="M90.8,188.5c0.7,0,1.3-0.6,1.3-1.3c0-0.7-0.6-1.3-1.3-1.3c-0.7,0-1.3,0.6-1.3,1.3C89.5,187.9,90.1,188.5,90.8,188.5z"/>
			<path d="M105.2,188.5c0.7,0,1.3-0.6,1.3-1.3c0-0.7-0.6-1.3-1.3-1.3s-1.3,0.6-1.3,1.3C103.9,187.9,104.5,188.5,105.2,188.5z"/>
			<path d="M119.6,188.5c0.7,0,1.3-0.6,1.3-1.3c0-0.7-0.6-1.3-1.3-1.3c-0.7,0-1.3,0.6-1.3,1.3C118.3,187.9,118.9,188.5,119.6,188.5z
				"/>
			<path d="M134,188.5c0.7,0,1.3-0.6,1.3-1.3c0-0.7-0.6-1.3-1.3-1.3c-0.7,0-1.3,0.6-1.3,1.3C132.7,187.9,133.3,188.5,134,188.5z"/>
			<path d="M148.4,188.5c0.7,0,1.3-0.6,1.3-1.3c0-0.7-0.6-1.3-1.3-1.3c-0.7,0-1.3,0.6-1.3,1.3C147.1,187.9,147.7,188.5,148.4,188.5z
				"/>
			<path d="M162.8,188.5c0.7,0,1.3-0.6,1.3-1.3c0-0.7-0.6-1.3-1.3-1.3c-0.7,0-1.3,0.6-1.3,1.3C161.5,187.9,162.1,188.5,162.8,188.5z
				"/>
			<path d="M177.2,188.5c0.7,0,1.3-0.6,1.3-1.3c0-0.7-0.6-1.3-1.3-1.3s-1.3,0.6-1.3,1.3C175.9,187.9,176.5,188.5,177.2,188.5z"/>
			<path d="M191.6,188.5c0.7,0,1.3-0.6,1.3-1.3c0-0.7-0.6-1.3-1.3-1.3c-0.7,0-1.3,0.6-1.3,1.3C190.3,187.9,190.9,188.5,191.6,188.5z
				"/>
			<path d="M206,188.5c0.7,0,1.3-0.6,1.3-1.3c0-0.7-0.6-1.3-1.3-1.3c-0.7,0-1.3,0.6-1.3,1.3C204.7,187.9,205.3,188.5,206,188.5z"/>
			<path d="M220.4,188.5c0.7,0,1.3-0.6,1.3-1.3c0-0.7-0.6-1.3-1.3-1.3c-0.7,0-1.3,0.6-1.3,1.3C219.1,187.9,219.7,188.5,220.4,188.5z
				"/>
			<path d="M234.8,188.5c0.7,0,1.3-0.6,1.3-1.3c0-0.7-0.6-1.3-1.3-1.3c-0.7,0-1.3,0.6-1.3,1.3C233.5,187.9,234.1,188.5,234.8,188.5z
				"/>
			<path d="M249.2,188.5c0.7,0,1.3-0.6,1.3-1.3c0-0.7-0.6-1.3-1.3-1.3s-1.3,0.6-1.3,1.3C247.9,187.9,248.5,188.5,249.2,188.5z"/>
			<path d="M263.6,188.5c0.7,0,1.3-0.6,1.3-1.3c0-0.7-0.6-1.3-1.3-1.3c-0.7,0-1.3,0.6-1.3,1.3C262.3,187.9,262.9,188.5,263.6,188.5z
				"/>
			<path d="M278,188.5c0.7,0,1.3-0.6,1.3-1.3c0-0.7-0.6-1.3-1.3-1.3c-0.7,0-1.3,0.6-1.3,1.3C276.7,187.9,277.3,188.5,278,188.5z"/>
			<path d="M292.4,188.5c0.7,0,1.3-0.6,1.3-1.3c0-0.7-0.6-1.3-1.3-1.3c-0.7,0-1.3,0.6-1.3,1.3C291.1,187.9,291.7,188.5,292.4,188.5z
				"/>
			<path d="M-17.2,202.9c0.7,0,1.3-0.6,1.3-1.3s-0.6-1.3-1.3-1.3c-0.7,0-1.3,0.6-1.3,1.3S-17.9,202.9-17.2,202.9z"/>
			<circle cx="-2.8" cy="201.6" r="1.3"/>
			<path d="M11.6,202.9c0.7,0,1.3-0.6,1.3-1.3s-0.6-1.3-1.3-1.3c-0.7,0-1.3,0.6-1.3,1.3S10.9,202.9,11.6,202.9z"/>
			<path d="M26,202.9c0.7,0,1.3-0.6,1.3-1.3s-0.6-1.3-1.3-1.3c-0.7,0-1.3,0.6-1.3,1.3S25.3,202.9,26,202.9z"/>
			<path d="M40.4,202.9c0.7,0,1.3-0.6,1.3-1.3s-0.6-1.3-1.3-1.3c-0.7,0-1.3,0.6-1.3,1.3S39.7,202.9,40.4,202.9z"/>
			<path d="M54.8,202.9c0.7,0,1.3-0.6,1.3-1.3s-0.6-1.3-1.3-1.3c-0.7,0-1.3,0.6-1.3,1.3S54.1,202.9,54.8,202.9z"/>
			<circle cx="69.2" cy="201.6" r="1.3"/>
			<path d="M83.6,202.9c0.7,0,1.3-0.6,1.3-1.3s-0.6-1.3-1.3-1.3c-0.7,0-1.3,0.6-1.3,1.3S82.9,202.9,83.6,202.9z"/>
			<path d="M98,202.9c0.7,0,1.3-0.6,1.3-1.3s-0.6-1.3-1.3-1.3c-0.7,0-1.3,0.6-1.3,1.3S97.3,202.9,98,202.9z"/>
			<path d="M112.4,202.9c0.7,0,1.3-0.6,1.3-1.3s-0.6-1.3-1.3-1.3c-0.7,0-1.3,0.6-1.3,1.3S111.7,202.9,112.4,202.9z"/>
			<path d="M126.8,202.9c0.7,0,1.3-0.6,1.3-1.3s-0.6-1.3-1.3-1.3c-0.7,0-1.3,0.6-1.3,1.3S126.1,202.9,126.8,202.9z"/>
			<circle cx="141.2" cy="201.6" r="1.3"/>
			<path d="M155.6,202.9c0.7,0,1.3-0.6,1.3-1.3s-0.6-1.3-1.3-1.3c-0.7,0-1.3,0.6-1.3,1.3S154.9,202.9,155.6,202.9z"/>
			<path d="M170,202.9c0.7,0,1.3-0.6,1.3-1.3s-0.6-1.3-1.3-1.3c-0.7,0-1.3,0.6-1.3,1.3S169.3,202.9,170,202.9z"/>
			<path d="M184.4,202.9c0.7,0,1.3-0.6,1.3-1.3s-0.6-1.3-1.3-1.3c-0.7,0-1.3,0.6-1.3,1.3S183.7,202.9,184.4,202.9z"/>
			<path d="M198.8,202.9c0.7,0,1.3-0.6,1.3-1.3s-0.6-1.3-1.3-1.3c-0.7,0-1.3,0.6-1.3,1.3S198.1,202.9,198.8,202.9z"/>
			<circle cx="213.2" cy="201.6" r="1.3"/>
			<path d="M227.6,202.9c0.7,0,1.3-0.6,1.3-1.3s-0.6-1.3-1.3-1.3c-0.7,0-1.3,0.6-1.3,1.3S226.9,202.9,227.6,202.9z"/>
			<path d="M242,202.9c0.7,0,1.3-0.6,1.3-1.3s-0.6-1.3-1.3-1.3c-0.7,0-1.3,0.6-1.3,1.3S241.3,202.9,242,202.9z"/>
			<path d="M256.4,202.9c0.7,0,1.3-0.6,1.3-1.3s-0.6-1.3-1.3-1.3c-0.7,0-1.3,0.6-1.3,1.3S255.7,202.9,256.4,202.9z"/>
			<path d="M270.8,202.9c0.7,0,1.3-0.6,1.3-1.3s-0.6-1.3-1.3-1.3c-0.7,0-1.3,0.6-1.3,1.3S270.1,202.9,270.8,202.9z"/>
			<circle cx="285.2" cy="201.6" r="1.3"/>
			<path d="M-10,217.3c0.7,0,1.3-0.6,1.3-1.3s-0.6-1.3-1.3-1.3c-0.7,0-1.3,0.6-1.3,1.3S-10.7,217.3-10,217.3z"/>
			<path d="M4.4,217.3c0.7,0,1.3-0.6,1.3-1.3s-0.6-1.3-1.3-1.3c-0.7,0-1.3,0.6-1.3,1.3S3.7,217.3,4.4,217.3z"/>
			<path d="M18.8,217.3c0.7,0,1.3-0.6,1.3-1.3s-0.6-1.3-1.3-1.3c-0.7,0-1.3,0.6-1.3,1.3S18.1,217.3,18.8,217.3z"/>
			<circle cx="33.2" cy="216" r="1.3"/>
			<path d="M47.6,217.3c0.7,0,1.3-0.6,1.3-1.3s-0.6-1.3-1.3-1.3c-0.7,0-1.3,0.6-1.3,1.3S46.9,217.3,47.6,217.3z"/>
			<path d="M62,217.3c0.7,0,1.3-0.6,1.3-1.3s-0.6-1.3-1.3-1.3c-0.7,0-1.3,0.6-1.3,1.3S61.3,217.3,62,217.3z"/>
			<path d="M76.4,217.3c0.7,0,1.3-0.6,1.3-1.3s-0.6-1.3-1.3-1.3c-0.7,0-1.3,0.6-1.3,1.3S75.7,217.3,76.4,217.3z"/>
			<path d="M90.8,217.3c0.7,0,1.3-0.6,1.3-1.3s-0.6-1.3-1.3-1.3c-0.7,0-1.3,0.6-1.3,1.3S90.1,217.3,90.8,217.3z"/>
			<circle cx="105.2" cy="216" r="1.3"/>
			<path d="M119.6,217.3c0.7,0,1.3-0.6,1.3-1.3s-0.6-1.3-1.3-1.3c-0.7,0-1.3,0.6-1.3,1.3S118.9,217.3,119.6,217.3z"/>
			<path d="M134,217.3c0.7,0,1.3-0.6,1.3-1.3s-0.6-1.3-1.3-1.3c-0.7,0-1.3,0.6-1.3,1.3S133.3,217.3,134,217.3z"/>
			<path d="M148.4,217.3c0.7,0,1.3-0.6,1.3-1.3s-0.6-1.3-1.3-1.3c-0.7,0-1.3,0.6-1.3,1.3S147.7,217.3,148.4,217.3z"/>
			<path d="M162.8,217.3c0.7,0,1.3-0.6,1.3-1.3s-0.6-1.3-1.3-1.3c-0.7,0-1.3,0.6-1.3,1.3S162.1,217.3,162.8,217.3z"/>
			<circle cx="177.2" cy="216" r="1.3"/>
			<path d="M191.6,217.3c0.7,0,1.3-0.6,1.3-1.3s-0.6-1.3-1.3-1.3c-0.7,0-1.3,0.6-1.3,1.3S190.9,217.3,191.6,217.3z"/>
			<path d="M206,217.3c0.7,0,1.3-0.6,1.3-1.3s-0.6-1.3-1.3-1.3c-0.7,0-1.3,0.6-1.3,1.3S205.3,217.3,206,217.3z"/>
			<path d="M220.4,217.3c0.7,0,1.3-0.6,1.3-1.3s-0.6-1.3-1.3-1.3c-0.7,0-1.3,0.6-1.3,1.3S219.7,217.3,220.4,217.3z"/>
			<path d="M234.8,217.3c0.7,0,1.3-0.6,1.3-1.3s-0.6-1.3-1.3-1.3c-0.7,0-1.3,0.6-1.3,1.3S234.1,217.3,234.8,217.3z"/>
			<circle cx="249.2" cy="216" r="1.3"/>
			<path d="M263.6,217.3c0.7,0,1.3-0.6,1.3-1.3s-0.6-1.3-1.3-1.3c-0.7,0-1.3,0.6-1.3,1.3S262.9,217.3,263.6,217.3z"/>
			<path d="M278,217.3c0.7,0,1.3-0.6,1.3-1.3s-0.6-1.3-1.3-1.3c-0.7,0-1.3,0.6-1.3,1.3S277.3,217.3,278,217.3z"/>
			<path d="M292.4,217.3c0.7,0,1.3-0.6,1.3-1.3s-0.6-1.3-1.3-1.3c-0.7,0-1.3,0.6-1.3,1.3S291.7,217.3,292.4,217.3z"/>
			<path d="M-17.2,231.7c0.7,0,1.3-0.6,1.3-1.3c0-0.7-0.6-1.3-1.3-1.3c-0.7,0-1.3,0.6-1.3,1.3C-18.5,231.1-17.9,231.7-17.2,231.7z"
				/>
			<path d="M-2.8,231.7c0.7,0,1.3-0.6,1.3-1.3c0-0.7-0.6-1.3-1.3-1.3s-1.3,0.6-1.3,1.3C-4.1,231.1-3.5,231.7-2.8,231.7z"/>
			<path d="M11.6,231.7c0.7,0,1.3-0.6,1.3-1.3c0-0.7-0.6-1.3-1.3-1.3c-0.7,0-1.3,0.6-1.3,1.3C10.3,231.1,10.9,231.7,11.6,231.7z"/>
			<path d="M26,231.7c0.7,0,1.3-0.6,1.3-1.3c0-0.7-0.6-1.3-1.3-1.3c-0.7,0-1.3,0.6-1.3,1.3C24.7,231.1,25.3,231.7,26,231.7z"/>
			<path d="M40.4,231.7c0.7,0,1.3-0.6,1.3-1.3c0-0.7-0.6-1.3-1.3-1.3c-0.7,0-1.3,0.6-1.3,1.3C39.1,231.1,39.7,231.7,40.4,231.7z"/>
			<path d="M54.8,231.7c0.7,0,1.3-0.6,1.3-1.3c0-0.7-0.6-1.3-1.3-1.3c-0.7,0-1.3,0.6-1.3,1.3C53.5,231.1,54.1,231.7,54.8,231.7z"/>
			<path d="M69.2,231.7c0.7,0,1.3-0.6,1.3-1.3c0-0.7-0.6-1.3-1.3-1.3s-1.3,0.6-1.3,1.3C67.9,231.1,68.5,231.7,69.2,231.7z"/>
			<path d="M83.6,231.7c0.7,0,1.3-0.6,1.3-1.3c0-0.7-0.6-1.3-1.3-1.3c-0.7,0-1.3,0.6-1.3,1.3C82.3,231.1,82.9,231.7,83.6,231.7z"/>
			<path d="M98,231.7c0.7,0,1.3-0.6,1.3-1.3c0-0.7-0.6-1.3-1.3-1.3c-0.7,0-1.3,0.6-1.3,1.3C96.7,231.1,97.3,231.7,98,231.7z"/>
			<path d="M112.4,231.7c0.7,0,1.3-0.6,1.3-1.3c0-0.7-0.6-1.3-1.3-1.3c-0.7,0-1.3,0.6-1.3,1.3C111.1,231.1,111.7,231.7,112.4,231.7z
				"/>
			<path d="M126.8,231.7c0.7,0,1.3-0.6,1.3-1.3c0-0.7-0.6-1.3-1.3-1.3c-0.7,0-1.3,0.6-1.3,1.3C125.5,231.1,126.1,231.7,126.8,231.7z
				"/>
			<path d="M141.2,231.7c0.7,0,1.3-0.6,1.3-1.3c0-0.7-0.6-1.3-1.3-1.3s-1.3,0.6-1.3,1.3C139.9,231.1,140.5,231.7,141.2,231.7z"/>
			<path d="M155.6,231.7c0.7,0,1.3-0.6,1.3-1.3c0-0.7-0.6-1.3-1.3-1.3c-0.7,0-1.3,0.6-1.3,1.3C154.3,231.1,154.9,231.7,155.6,231.7z
				"/>
			<path d="M170,231.7c0.7,0,1.3-0.6,1.3-1.3c0-0.7-0.6-1.3-1.3-1.3c-0.7,0-1.3,0.6-1.3,1.3C168.7,231.1,169.3,231.7,170,231.7z"/>
			<path d="M184.4,231.7c0.7,0,1.3-0.6,1.3-1.3c0-0.7-0.6-1.3-1.3-1.3c-0.7,0-1.3,0.6-1.3,1.3C183.1,231.1,183.7,231.7,184.4,231.7z
				"/>
			<path d="M198.8,231.7c0.7,0,1.3-0.6,1.3-1.3c0-0.7-0.6-1.3-1.3-1.3c-0.7,0-1.3,0.6-1.3,1.3C197.5,231.1,198.1,231.7,198.8,231.7z
				"/>
			<path d="M213.2,231.7c0.7,0,1.3-0.6,1.3-1.3c0-0.7-0.6-1.3-1.3-1.3s-1.3,0.6-1.3,1.3C211.9,231.1,212.5,231.7,213.2,231.7z"/>
			<path d="M227.6,231.7c0.7,0,1.3-0.6,1.3-1.3c0-0.7-0.6-1.3-1.3-1.3c-0.7,0-1.3,0.6-1.3,1.3C226.3,231.1,226.9,231.7,227.6,231.7z
				"/>
			<path d="M242,231.7c0.7,0,1.3-0.6,1.3-1.3c0-0.7-0.6-1.3-1.3-1.3c-0.7,0-1.3,0.6-1.3,1.3C240.7,231.1,241.3,231.7,242,231.7z"/>
			<path d="M256.4,231.7c0.7,0,1.3-0.6,1.3-1.3c0-0.7-0.6-1.3-1.3-1.3c-0.7,0-1.3,0.6-1.3,1.3C255.1,231.1,255.7,231.7,256.4,231.7z
				"/>
			<path d="M270.8,231.7c0.7,0,1.3-0.6,1.3-1.3c0-0.7-0.6-1.3-1.3-1.3c-0.7,0-1.3,0.6-1.3,1.3C269.5,231.1,270.1,231.7,270.8,231.7z
				"/>
			<path d="M285.2,231.7c0.7,0,1.3-0.6,1.3-1.3c0-0.7-0.6-1.3-1.3-1.3c-0.7,0-1.3,0.6-1.3,1.3C283.9,231.1,284.5,231.7,285.2,231.7z
				"/>
			<path d="M-10,246.1c0.7,0,1.3-0.6,1.3-1.3c0-0.7-0.6-1.3-1.3-1.3c-0.7,0-1.3,0.6-1.3,1.3C-11.3,245.5-10.7,246.1-10,246.1z"/>
			<path d="M4.4,246.1c0.7,0,1.3-0.6,1.3-1.3c0-0.7-0.6-1.3-1.3-1.3c-0.7,0-1.3,0.6-1.3,1.3C3.1,245.5,3.7,246.1,4.4,246.1z"/>
			<path d="M18.8,246.1c0.7,0,1.3-0.6,1.3-1.3c0-0.7-0.6-1.3-1.3-1.3c-0.7,0-1.3,0.6-1.3,1.3C17.5,245.5,18.1,246.1,18.8,246.1z"/>
			<path d="M33.2,246.1c0.7,0,1.3-0.6,1.3-1.3c0-0.7-0.6-1.3-1.3-1.3s-1.3,0.6-1.3,1.3C31.9,245.5,32.5,246.1,33.2,246.1z"/>
			<path d="M47.6,246.1c0.7,0,1.3-0.6,1.3-1.3c0-0.7-0.6-1.3-1.3-1.3c-0.7,0-1.3,0.6-1.3,1.3C46.3,245.5,46.9,246.1,47.6,246.1z"/>
			<path d="M62,246.1c0.7,0,1.3-0.6,1.3-1.3c0-0.7-0.6-1.3-1.3-1.3c-0.7,0-1.3,0.6-1.3,1.3C60.7,245.5,61.3,246.1,62,246.1z"/>
			<path d="M76.4,246.1c0.7,0,1.3-0.6,1.3-1.3c0-0.7-0.6-1.3-1.3-1.3c-0.7,0-1.3,0.6-1.3,1.3C75.1,245.5,75.7,246.1,76.4,246.1z"/>
			<path d="M90.8,246.1c0.7,0,1.3-0.6,1.3-1.3c0-0.7-0.6-1.3-1.3-1.3c-0.7,0-1.3,0.6-1.3,1.3C89.5,245.5,90.1,246.1,90.8,246.1z"/>
			<path d="M105.2,246.1c0.7,0,1.3-0.6,1.3-1.3c0-0.7-0.6-1.3-1.3-1.3s-1.3,0.6-1.3,1.3C103.9,245.5,104.5,246.1,105.2,246.1z"/>
			<path d="M119.6,246.1c0.7,0,1.3-0.6,1.3-1.3c0-0.7-0.6-1.3-1.3-1.3c-0.7,0-1.3,0.6-1.3,1.3C118.3,245.5,118.9,246.1,119.6,246.1z
				"/>
			<path d="M134,246.1c0.7,0,1.3-0.6,1.3-1.3c0-0.7-0.6-1.3-1.3-1.3c-0.7,0-1.3,0.6-1.3,1.3C132.7,245.5,133.3,246.1,134,246.1z"/>
			<path d="M148.4,246.1c0.7,0,1.3-0.6,1.3-1.3c0-0.7-0.6-1.3-1.3-1.3c-0.7,0-1.3,0.6-1.3,1.3C147.1,245.5,147.7,246.1,148.4,246.1z
				"/>
			<path d="M162.8,246.1c0.7,0,1.3-0.6,1.3-1.3c0-0.7-0.6-1.3-1.3-1.3c-0.7,0-1.3,0.6-1.3,1.3C161.5,245.5,162.1,246.1,162.8,246.1z
				"/>
			<path d="M177.2,246.1c0.7,0,1.3-0.6,1.3-1.3c0-0.7-0.6-1.3-1.3-1.3s-1.3,0.6-1.3,1.3C175.9,245.5,176.5,246.1,177.2,246.1z"/>
			<path d="M191.6,246.1c0.7,0,1.3-0.6,1.3-1.3c0-0.7-0.6-1.3-1.3-1.3c-0.7,0-1.3,0.6-1.3,1.3C190.3,245.5,190.9,246.1,191.6,246.1z
				"/>
			<path d="M206,246.1c0.7,0,1.3-0.6,1.3-1.3c0-0.7-0.6-1.3-1.3-1.3c-0.7,0-1.3,0.6-1.3,1.3C204.7,245.5,205.3,246.1,206,246.1z"/>
			<path d="M220.4,246.1c0.7,0,1.3-0.6,1.3-1.3c0-0.7-0.6-1.3-1.3-1.3c-0.7,0-1.3,0.6-1.3,1.3C219.1,245.5,219.7,246.1,220.4,246.1z
				"/>
			<path d="M234.8,246.1c0.7,0,1.3-0.6,1.3-1.3c0-0.7-0.6-1.3-1.3-1.3c-0.7,0-1.3,0.6-1.3,1.3C233.5,245.5,234.1,246.1,234.8,246.1z
				"/>
			<path d="M249.2,246.1c0.7,0,1.3-0.6,1.3-1.3c0-0.7-0.6-1.3-1.3-1.3s-1.3,0.6-1.3,1.3C247.9,245.5,248.5,246.1,249.2,246.1z"/>
			<path d="M263.6,246.1c0.7,0,1.3-0.6,1.3-1.3c0-0.7-0.6-1.3-1.3-1.3c-0.7,0-1.3,0.6-1.3,1.3C262.3,245.5,262.9,246.1,263.6,246.1z
				"/>
			<path d="M278,246.1c0.7,0,1.3-0.6,1.3-1.3c0-0.7-0.6-1.3-1.3-1.3c-0.7,0-1.3,0.6-1.3,1.3C276.7,245.5,277.3,246.1,278,246.1z"/>
			<path d="M292.4,246.1c0.7,0,1.3-0.6,1.3-1.3c0-0.7-0.6-1.3-1.3-1.3c-0.7,0-1.3,0.6-1.3,1.3C291.1,245.5,291.7,246.1,292.4,246.1z
				"/>
			<path d="M-17.2,260.5c0.7,0,1.3-0.6,1.3-1.3c0-0.7-0.6-1.3-1.3-1.3c-0.7,0-1.3,0.6-1.3,1.3C-18.5,259.9-17.9,260.5-17.2,260.5z"
				/>
			<path d="M-2.8,260.5c0.7,0,1.3-0.6,1.3-1.3c0-0.7-0.6-1.3-1.3-1.3s-1.3,0.6-1.3,1.3C-4.1,259.9-3.5,260.5-2.8,260.5z"/>
			<path d="M11.6,260.5c0.7,0,1.3-0.6,1.3-1.3c0-0.7-0.6-1.3-1.3-1.3c-0.7,0-1.3,0.6-1.3,1.3C10.3,259.9,10.9,260.5,11.6,260.5z"/>
			<path d="M26,260.5c0.7,0,1.3-0.6,1.3-1.3c0-0.7-0.6-1.3-1.3-1.3c-0.7,0-1.3,0.6-1.3,1.3C24.7,259.9,25.3,260.5,26,260.5z"/>
			<path d="M40.4,260.5c0.7,0,1.3-0.6,1.3-1.3c0-0.7-0.6-1.3-1.3-1.3c-0.7,0-1.3,0.6-1.3,1.3C39.1,259.9,39.7,260.5,40.4,260.5z"/>
			<path d="M54.8,260.5c0.7,0,1.3-0.6,1.3-1.3c0-0.7-0.6-1.3-1.3-1.3c-0.7,0-1.3,0.6-1.3,1.3C53.5,259.9,54.1,260.5,54.8,260.5z"/>
			<path d="M69.2,260.5c0.7,0,1.3-0.6,1.3-1.3c0-0.7-0.6-1.3-1.3-1.3s-1.3,0.6-1.3,1.3C67.9,259.9,68.5,260.5,69.2,260.5z"/>
			<path d="M83.6,260.5c0.7,0,1.3-0.6,1.3-1.3c0-0.7-0.6-1.3-1.3-1.3c-0.7,0-1.3,0.6-1.3,1.3C82.3,259.9,82.9,260.5,83.6,260.5z"/>
			<path d="M98,260.5c0.7,0,1.3-0.6,1.3-1.3c0-0.7-0.6-1.3-1.3-1.3c-0.7,0-1.3,0.6-1.3,1.3C96.7,259.9,97.3,260.5,98,260.5z"/>
			<path d="M112.4,260.5c0.7,0,1.3-0.6,1.3-1.3c0-0.7-0.6-1.3-1.3-1.3c-0.7,0-1.3,0.6-1.3,1.3C111.1,259.9,111.7,260.5,112.4,260.5z
				"/>
			<path d="M126.8,260.5c0.7,0,1.3-0.6,1.3-1.3c0-0.7-0.6-1.3-1.3-1.3c-0.7,0-1.3,0.6-1.3,1.3C125.5,259.9,126.1,260.5,126.8,260.5z
				"/>
			<path d="M141.2,260.5c0.7,0,1.3-0.6,1.3-1.3c0-0.7-0.6-1.3-1.3-1.3s-1.3,0.6-1.3,1.3C139.9,259.9,140.5,260.5,141.2,260.5z"/>
			<path d="M155.6,260.5c0.7,0,1.3-0.6,1.3-1.3c0-0.7-0.6-1.3-1.3-1.3c-0.7,0-1.3,0.6-1.3,1.3C154.3,259.9,154.9,260.5,155.6,260.5z
				"/>
			<path d="M170,260.5c0.7,0,1.3-0.6,1.3-1.3c0-0.7-0.6-1.3-1.3-1.3c-0.7,0-1.3,0.6-1.3,1.3C168.7,259.9,169.3,260.5,170,260.5z"/>
			<path d="M184.4,260.5c0.7,0,1.3-0.6,1.3-1.3c0-0.7-0.6-1.3-1.3-1.3c-0.7,0-1.3,0.6-1.3,1.3C183.1,259.9,183.7,260.5,184.4,260.5z
				"/>
			<path d="M198.8,260.5c0.7,0,1.3-0.6,1.3-1.3c0-0.7-0.6-1.3-1.3-1.3c-0.7,0-1.3,0.6-1.3,1.3C197.5,259.9,198.1,260.5,198.8,260.5z
				"/>
			<path d="M213.2,260.5c0.7,0,1.3-0.6,1.3-1.3c0-0.7-0.6-1.3-1.3-1.3s-1.3,0.6-1.3,1.3C211.9,259.9,212.5,260.5,213.2,260.5z"/>
			<path d="M227.6,260.5c0.7,0,1.3-0.6,1.3-1.3c0-0.7-0.6-1.3-1.3-1.3c-0.7,0-1.3,0.6-1.3,1.3C226.3,259.9,226.9,260.5,227.6,260.5z
				"/>
			<path d="M242,260.5c0.7,0,1.3-0.6,1.3-1.3c0-0.7-0.6-1.3-1.3-1.3c-0.7,0-1.3,0.6-1.3,1.3C240.7,259.9,241.3,260.5,242,260.5z"/>
			<path d="M256.4,260.5c0.7,0,1.3-0.6,1.3-1.3c0-0.7-0.6-1.3-1.3-1.3c-0.7,0-1.3,0.6-1.3,1.3C255.1,259.9,255.7,260.5,256.4,260.5z
				"/>
			<path d="M270.8,260.5c0.7,0,1.3-0.6,1.3-1.3c0-0.7-0.6-1.3-1.3-1.3c-0.7,0-1.3,0.6-1.3,1.3C269.5,259.9,270.1,260.5,270.8,260.5z
				"/>
			<path d="M285.2,260.5c0.7,0,1.3-0.6,1.3-1.3c0-0.7-0.6-1.3-1.3-1.3c-0.7,0-1.3,0.6-1.3,1.3C283.9,259.9,284.5,260.5,285.2,260.5z
				"/>
			<path d="M-10,274.9c0.7,0,1.3-0.6,1.3-1.3s-0.6-1.3-1.3-1.3c-0.7,0-1.3,0.6-1.3,1.3S-10.7,274.9-10,274.9z"/>
			<path d="M4.4,274.9c0.7,0,1.3-0.6,1.3-1.3s-0.6-1.3-1.3-1.3c-0.7,0-1.3,0.6-1.3,1.3S3.7,274.9,4.4,274.9z"/>
			<path d="M18.8,274.9c0.7,0,1.3-0.6,1.3-1.3s-0.6-1.3-1.3-1.3c-0.7,0-1.3,0.6-1.3,1.3S18.1,274.9,18.8,274.9z"/>
			<circle cx="33.2" cy="273.6" r="1.3"/>
			<path d="M47.6,274.9c0.7,0,1.3-0.6,1.3-1.3s-0.6-1.3-1.3-1.3c-0.7,0-1.3,0.6-1.3,1.3S46.9,274.9,47.6,274.9z"/>
			<path d="M62,274.9c0.7,0,1.3-0.6,1.3-1.3s-0.6-1.3-1.3-1.3c-0.7,0-1.3,0.6-1.3,1.3S61.3,274.9,62,274.9z"/>
			<path d="M76.4,274.9c0.7,0,1.3-0.6,1.3-1.3s-0.6-1.3-1.3-1.3c-0.7,0-1.3,0.6-1.3,1.3S75.7,274.9,76.4,274.9z"/>
			<path d="M90.8,274.9c0.7,0,1.3-0.6,1.3-1.3s-0.6-1.3-1.3-1.3c-0.7,0-1.3,0.6-1.3,1.3S90.1,274.9,90.8,274.9z"/>
			<circle cx="105.2" cy="273.6" r="1.3"/>
			<path d="M119.6,274.9c0.7,0,1.3-0.6,1.3-1.3s-0.6-1.3-1.3-1.3c-0.7,0-1.3,0.6-1.3,1.3S118.9,274.9,119.6,274.9z"/>
			<path d="M134,274.9c0.7,0,1.3-0.6,1.3-1.3s-0.6-1.3-1.3-1.3c-0.7,0-1.3,0.6-1.3,1.3S133.3,274.9,134,274.9z"/>
			<path d="M148.4,274.9c0.7,0,1.3-0.6,1.3-1.3s-0.6-1.3-1.3-1.3c-0.7,0-1.3,0.6-1.3,1.3S147.7,274.9,148.4,274.9z"/>
			<path d="M162.8,274.9c0.7,0,1.3-0.6,1.3-1.3s-0.6-1.3-1.3-1.3c-0.7,0-1.3,0.6-1.3,1.3S162.1,274.9,162.8,274.9z"/>
			<circle cx="177.2" cy="273.6" r="1.3"/>
			<path d="M191.6,274.9c0.7,0,1.3-0.6,1.3-1.3s-0.6-1.3-1.3-1.3c-0.7,0-1.3,0.6-1.3,1.3S190.9,274.9,191.6,274.9z"/>
			<path d="M206,274.9c0.7,0,1.3-0.6,1.3-1.3s-0.6-1.3-1.3-1.3c-0.7,0-1.3,0.6-1.3,1.3S205.3,274.9,206,274.9z"/>
			<path d="M220.4,274.9c0.7,0,1.3-0.6,1.3-1.3s-0.6-1.3-1.3-1.3c-0.7,0-1.3,0.6-1.3,1.3S219.7,274.9,220.4,274.9z"/>
			<path d="M234.8,274.9c0.7,0,1.3-0.6,1.3-1.3s-0.6-1.3-1.3-1.3c-0.7,0-1.3,0.6-1.3,1.3S234.1,274.9,234.8,274.9z"/>
			<circle cx="249.2" cy="273.6" r="1.3"/>
			<path d="M263.6,274.9c0.7,0,1.3-0.6,1.3-1.3s-0.6-1.3-1.3-1.3c-0.7,0-1.3,0.6-1.3,1.3S262.9,274.9,263.6,274.9z"/>
			<path d="M278,274.9c0.7,0,1.3-0.6,1.3-1.3s-0.6-1.3-1.3-1.3c-0.7,0-1.3,0.6-1.3,1.3S277.3,274.9,278,274.9z"/>
			<path d="M292.4,274.9c0.7,0,1.3-0.6,1.3-1.3s-0.6-1.3-1.3-1.3c-0.7,0-1.3,0.6-1.3,1.3S291.7,274.9,292.4,274.9z"/>
			<path d="M-17.2,289.3c0.7,0,1.3-0.6,1.3-1.3s-0.6-1.3-1.3-1.3c-0.7,0-1.3,0.6-1.3,1.3S-17.9,289.3-17.2,289.3z"/>
			<circle cx="-2.8" cy="288" r="1.3"/>
			<path d="M11.6,289.3c0.7,0,1.3-0.6,1.3-1.3s-0.6-1.3-1.3-1.3c-0.7,0-1.3,0.6-1.3,1.3S10.9,289.3,11.6,289.3z"/>
			<path d="M26,289.3c0.7,0,1.3-0.6,1.3-1.3s-0.6-1.3-1.3-1.3c-0.7,0-1.3,0.6-1.3,1.3S25.3,289.3,26,289.3z"/>
			<path d="M40.4,289.3c0.7,0,1.3-0.6,1.3-1.3s-0.6-1.3-1.3-1.3c-0.7,0-1.3,0.6-1.3,1.3S39.7,289.3,40.4,289.3z"/>
			<path d="M54.8,289.3c0.7,0,1.3-0.6,1.3-1.3s-0.6-1.3-1.3-1.3c-0.7,0-1.3,0.6-1.3,1.3S54.1,289.3,54.8,289.3z"/>
			<circle cx="69.2" cy="288" r="1.3"/>
			<path d="M83.6,289.3c0.7,0,1.3-0.6,1.3-1.3s-0.6-1.3-1.3-1.3c-0.7,0-1.3,0.6-1.3,1.3S82.9,289.3,83.6,289.3z"/>
			<path d="M98,289.3c0.7,0,1.3-0.6,1.3-1.3s-0.6-1.3-1.3-1.3c-0.7,0-1.3,0.6-1.3,1.3S97.3,289.3,98,289.3z"/>
			<path d="M112.4,289.3c0.7,0,1.3-0.6,1.3-1.3s-0.6-1.3-1.3-1.3c-0.7,0-1.3,0.6-1.3,1.3S111.7,289.3,112.4,289.3z"/>
			<path d="M126.8,289.3c0.7,0,1.3-0.6,1.3-1.3s-0.6-1.3-1.3-1.3c-0.7,0-1.3,0.6-1.3,1.3S126.1,289.3,126.8,289.3z"/>
			<circle cx="141.2" cy="288" r="1.3"/>
			<path d="M155.6,289.3c0.7,0,1.3-0.6,1.3-1.3s-0.6-1.3-1.3-1.3c-0.7,0-1.3,0.6-1.3,1.3S154.9,289.3,155.6,289.3z"/>
			<path d="M170,289.3c0.7,0,1.3-0.6,1.3-1.3s-0.6-1.3-1.3-1.3c-0.7,0-1.3,0.6-1.3,1.3S169.3,289.3,170,289.3z"/>
			<path d="M184.4,289.3c0.7,0,1.3-0.6,1.3-1.3s-0.6-1.3-1.3-1.3c-0.7,0-1.3,0.6-1.3,1.3S183.7,289.3,184.4,289.3z"/>
			<path d="M198.8,289.3c0.7,0,1.3-0.6,1.3-1.3s-0.6-1.3-1.3-1.3c-0.7,0-1.3,0.6-1.3,1.3S198.1,289.3,198.8,289.3z"/>
			<circle cx="213.2" cy="288" r="1.3"/>
			<path d="M227.6,289.3c0.7,0,1.3-0.6,1.3-1.3s-0.6-1.3-1.3-1.3c-0.7,0-1.3,0.6-1.3,1.3S226.9,289.3,227.6,289.3z"/>
			<path d="M242,289.3c0.7,0,1.3-0.6,1.3-1.3s-0.6-1.3-1.3-1.3c-0.7,0-1.3,0.6-1.3,1.3S241.3,289.3,242,289.3z"/>
			<path d="M256.4,289.3c0.7,0,1.3-0.6,1.3-1.3s-0.6-1.3-1.3-1.3c-0.7,0-1.3,0.6-1.3,1.3S255.7,289.3,256.4,289.3z"/>
			<path d="M270.8,289.3c0.7,0,1.3-0.6,1.3-1.3s-0.6-1.3-1.3-1.3c-0.7,0-1.3,0.6-1.3,1.3S270.1,289.3,270.8,289.3z"/>
			<circle cx="285.2" cy="288" r="1.3"/>
		</g>
	</g>
</g>
</svg>
